<?xml version="1.0" encoding="UTF-8" standalone="no"?>
<!-- Created with Inkscape (http://www.inkscape.org/) -->

<svg
   xmlns:dc="http://purl.org/dc/elements/1.1/"
   xmlns:cc="http://creativecommons.org/ns#"
   xmlns:rdf="http://www.w3.org/1999/02/22-rdf-syntax-ns#"
   xmlns:svg="http://www.w3.org/2000/svg"
   xmlns="http://www.w3.org/2000/svg"
   xmlns:sodipodi="http://sodipodi.sourceforge.net/DTD/sodipodi-0.dtd"
   xmlns:inkscape="http://www.inkscape.org/namespaces/inkscape"
   width="491.12823mm"
   height="214.36566mm"
   viewBox="0 0 491.12823 214.36566"
   version="1.1"
   id="svg8"
   inkscape:version="0.92.3 (2405546, 2018-03-11)"
   sodipodi:docname="repose-clé.svg">
  <defs
     id="defs2" />
  <sodipodi:namedview
     id="base"
     pagecolor="#ffffff"
     bordercolor="#666666"
     borderopacity="1.0"
     inkscape:pageopacity="0.0"
     inkscape:pageshadow="2"
     inkscape:zoom="0.47167969"
     inkscape:cx="987.65486"
     inkscape:cy="485.00388"
     inkscape:document-units="mm"
     inkscape:current-layer="layer1"
     showgrid="false"
     inkscape:window-width="1280"
     inkscape:window-height="664"
     inkscape:window-x="0"
     inkscape:window-y="0"
     inkscape:window-maximized="1"
     fit-margin-top="0"
     fit-margin-left="0"
     fit-margin-right="0"
     fit-margin-bottom="0" />
  <metadata
     id="metadata5">
    <rdf:RDF>
      <cc:Work
         rdf:about="">
        <dc:format>image/svg+xml</dc:format>
        <dc:type
           rdf:resource="http://purl.org/dc/dcmitype/StillImage" />
        <dc:title></dc:title>
      </cc:Work>
    </rdf:RDF>
  </metadata>
  <g
     inkscape:label="Calque 1"
     inkscape:groupmode="layer"
     id="layer1"
     transform="translate(326.12149,28.655236)">
    <ellipse
       style="fill:#ff0000;fill-rule:evenodd;stroke-width:0.26458332"
       id="path10"
       cx="83.579849"
       cy="105.43948"
       rx="0.5609386"
       ry="0.8414079" />
    <path
       style="opacity:0.98000004;fill:#ffffff;fill-opacity:1;fill-rule:evenodd;stroke:#000000;stroke-width:1.12821996;stroke-linejoin:round;stroke-miterlimit:4;stroke-dasharray:none;stroke-opacity:1"
       d="m -220.52355,-28.091126 c -58.00849,-2.69e-4 -105.0338,47.73463 -105.03383,106.618723 3e-5,58.884093 47.02534,106.618993 105.03383,106.618723 43.2923,-0.002 82.1484,-26.96702 97.86396,-67.91504 h 31.178921 l 22.859255,40.29529 23.673433,-40.29529 h 9.113681 l 22.614599,39.86333 23.419367,-39.86333 h 10.736656 l 22.859258,40.29529 23.672983,-40.29529 h 10.364296 l 22.859261,40.29529 23.84146,-40.58162 c 1.72798,0.29585 3.47454,0.45223 5.22472,0.4678 19.15553,7e-5 34.68422,-16.50843 34.68432,-36.872787 1.3e-4,-20.364534 -15.52862,-36.873307 -34.68432,-36.873235 -2.3179,0.01286 -4.62874,-0.198682 -6.89788,0.304252 v 0 h -244.13855 c -14.53474,-43.06414325 -54.40088,-72.010949 -99.24542,-72.062106 z M -254.71677,39.2889 c 22.48799,-1.99e-4 40.71823,19.16471 40.71829,42.805933 -6e-5,23.641227 -18.2303,42.806137 -40.71829,42.805937 -22.48782,-6e-5 -40.71778,-19.1649 -40.71784,-42.805937 6e-5,-23.641039 18.23002,-42.805871 40.71784,-42.805933 z"
       id="rect33"
       inkscape:connector-curvature="0"
       sodipodi:nodetypes="cscccccccccccccccccccccccccc" />
    <circle
       style="fill:#000000;fill-rule:evenodd;stroke-width:0.06513581"
       id="path159"
       cx="-82.896507"
       cy="76.310928"
       r="4.0999999" />
    <circle
       style="fill:#000000;fill-rule:evenodd;stroke-width:0.06513581"
       id="path159-0"
       cx="-28.972406"
       cy="102.73636"
       r="4.0999999" />
    <circle
       style="fill:#000000;fill-rule:evenodd;stroke-width:0.06513581"
       id="path159-6"
       cx="20.820217"
       cy="76.310928"
       r="4.0999999" />
    <circle
       style="fill:#000000;fill-rule:evenodd;stroke-width:0.06513581"
       id="path159-0-8"
       cx="73.156815"
       cy="102.73636"
       r="4.0999999" />
    <circle
       style="fill:#000000;fill-rule:evenodd;stroke-width:0.06513581"
       id="path159-6-0"
       cx="113.95363"
       cy="76.310928"
       r="4.0999999" />
    <g
       id="g1070"
       transform="matrix(0.0338756,0.01535217,0.01535217,-0.0338756,-737.14681,-54.369599)"
       style="fill:#000000;stroke-width:1.71234584"
       inkscape:transform-center-x="-5.6379041"
       inkscape:transform-center-y="-22.911536">
      <path
         d="m 15656.8,2092.61 c -23.9,-31.41 -23.9,-31.41 -13.2,-64.7 4,24.37 13.6,39.83 13.2,64.7 z m 408,973.05 c -13.7,-3.05 -31.8,1.1 -44.4,-13.57 -0.5,-0.62 0.1,-3.16 0.9,-3.66 17,-10.69 32.7,1.72 49.1,3.38 4.9,0.5 11.7,3.71 10.1,9.69 -1.4,5.26 -8.5,3.82 -15.7,4.16 z m -205.3,-32.3 c -7.3,26.76 -17.4,50.96 -40.2,66.86 -2.7,1.94 -7.7,3.27 -10.4,2.11 -5.5,-2.33 -1.5,-6.93 0.1,-9.86 12.4,-23.38 27.5,-44.65 50.5,-59.11 z m -207.7,-1063.61 c 1.6,-1.33 3.2,-2.72 4.9,-4.1 13.1,16.39 26.3,32.74 39.5,49.19 18.4,22.93 18.4,22.93 -1.7,44.53 -11,11.91 -14.4,11.3 -19.3,-5.65 -8.3,-27.86 -15.7,-55.94 -23.4,-83.97 z m 163.8,195.42 c -9.1,2.33 -14,3.16 -18.7,4.88 -18.2,6.59 -36.2,13.52 -54.3,20.33 -2.1,-24.48 15.7,-42.93 19.9,-65.59 2.2,-11.57 9.4,-11.46 16.2,-3.71 12,13.63 23.3,27.75 36.9,44.09 z m -196.9,-208.22 c -15.2,-24.93 -24.8,-44.04 -37.5,-60.66 -11.2,-14.62 -26,-26.69 -39.4,-39.66 -10.3,-9.97 -8.4,-14.34 5.7,-16.61 9,-1.45 17.9,-5.21 26.2,-9.37 7.3,-3.76 13.6,-3.49 15.7,4.27 10.3,37.89 23.4,75.17 29.3,122.03 z m 531.8,1606.36 c 3.8,4.99 7.4,10.08 11.3,14.91 3.6,4.37 9.2,7.97 11,0.05 1.6,-7.37 2.2,-15.01 9.7,-5.98 19.6,23.6 37.4,48.69 41.4,80.54 0.7,5.26 0.3,11.13 -4.8,14.07 -5.5,3.1 -10.7,-0.39 -14.4,-3.88 -28.6,-27.08 -47.2,-59.99 -54.2,-99.71 z m -516.4,-1941.66 c -19.7,12.47 -36.8,24.93 -47,44.37 -4.4,8.53 -11.3,7.81 -13.8,-0.11 -9.4,-30.41 -17.6,-61.15 -26,-91.84 -0.7,-2.33 -0.5,-6.04 0.9,-7.53 3.2,-3.33 6.8,-0.89 9.8,1.27 24.7,17.45 49.4,35.01 76.1,53.84 z m 304.9,1132.91 c 10.8,6.49 18.2,11.25 26,15.4 3,1.56 7.3,5.21 9.9,-0.33 1.9,-3.99 -1.7,-6.76 -3.7,-10.02 -4.1,-6.76 -19.5,-10.81 -11,-20 6.4,-7.04 16.9,2.66 24.7,7.03 19,10.58 34.2,24.99 39.8,46.92 5.8,22.38 -5.7,34.18 -27.4,27.53 -31.1,-9.52 -51.8,-29.08 -58.3,-66.53 z m -440.5,-1231.4 c 2.2,-0.44 4.3,-0.88 6.5,-1.33 8.7,30.25 17.3,60.55 26.1,90.74 2.5,8.75 1.8,16.28 -8.5,18.17 -20.7,3.71 -33.9,18.78 -53.2,36.67 8.3,-44.98 15.2,-83.37 22.5,-121.7 1.5,-7.65 4.3,-15.01 6.6,-22.55 z m 156.3,1093.2 c -17.3,-9.14 -15.2,-32.57 -30.5,-40.77 -26.3,-14.02 -21.2,-39.66 -25.2,-61.82 -1.1,-6.43 3.9,-12.36 12.2,-12.41 26.5,-0.17 49.7,18.72 52,44.92 2.1,23.44 3.1,47.31 -8.5,70.08 z m 89.5,-527.07 c -1.8,23.93 -9.7,45.03 -18,66.14 -6.1,15.17 -14.7,24.54 -31.7,30.24 -14.1,4.77 -14.1,-1.33 -12.6,-9.08 5.3,-27.09 11.3,-54.12 18.6,-80.77 3.1,-11.3 10.2,-21.66 19.8,-29.41 8.3,-6.76 15,-4.21 18.9,4.76 2.6,5.93 3.5,12.58 5,18.12 z m -189.3,907.68 c -4.2,-0.17 -7.9,-2.99 -8.5,-7.59 -6.1,-41.55 0.6,-79.33 32.7,-109.57 4.9,-4.65 9.8,-8.97 17.4,-5.32 9.6,4.66 7.9,12.52 5.6,20.33 -2.3,7.59 -5,15.07 -7.4,22.6 -1.7,5.26 -2.1,13.19 3.1,13.52 17.6,1.22 11.2,10.47 7.4,18.61 -8.6,18.67 -22.4,32.74 -39.9,43.26 -3.3,2 -7.3,2.94 -10.4,4.16 z m 36.2,-329.7 c -38.5,20.99 -78.1,32.68 -121.3,22.98 -14.4,-3.27 -25.5,-10.58 -25,-26.36 0.4,-13.63 10.7,-20.72 23.2,-23.93 7.8,-1.94 15.6,-3.94 23.4,-4.22 25.3,-0.88 50.6,-1.43 78.5,10.36 -13.8,1.55 -23.9,2.66 -34,3.88 -4,0.5 -7.7,2.22 -7,7.09 0.6,4.43 4.3,6.59 8.4,6.87 18,1.28 35.9,2.22 53.8,3.33 z m -255.9,-510.79 c -21.3,-19.67 -67.2,-80.99 -74.2,-98.71 -5.9,-15.24 -1.2,-24.32 15.5,-22.88 24.8,2.05 53,1.55 72.6,13.74 14.3,8.97 3.6,37.33 4.8,57 0.2,2.6 -0.6,5.26 -0.6,7.92 -0.1,3.71 -1.7,5.09 -3.8,4.49 -10.2,-5.93 -4.9,-21.77 -19,-24.32 -6.5,21.32 9.6,41.04 4.7,62.76 z m 764,949.39 c -4.8,-2.32 -9.6,-4.59 -14.2,-7.03 -4.7,-2.44 -10.7,-5.15 -9.2,-11.25 1.5,-6.09 8.5,-3.99 13.2,-5.09 8.3,-2 15.5,0.38 22.4,5.31 23.6,16.79 50.5,30.25 63.6,58.39 6,13.07 0.4,22.71 -13,20.27 -24.7,-4.48 -50.3,-4.93 -74,-14.29 -21.9,-8.64 -39.8,-21.38 -44.2,-46.64 -0.7,-3.6 -0.8,-8.37 1.1,-11.02 2.6,-3.66 6.6,-0.34 10.1,0.88 13.3,4.71 23.7,16.95 44.2,10.47 z m -313.7,-233.54 c 6.4,22.6 8.5,44.04 2.3,66.31 -9.9,36.45 -36.1,53.84 -70.3,62.21 -14.2,3.49 -21.9,-2.55 -19,-16.01 7.9,-37.39 21,-72.46 54.7,-103.2 0,15.9 -0.4,26.2 0.3,36.34 0.2,3.15 3,7.7 5.7,8.8 4.6,1.89 7.3,-2.99 7.9,-6.48 2.8,-17 5.5,-33.9 18.4,-47.97 z m 56.5,429.52 c -1.5,61.49 -30.8,98.5 -73.2,127.74 -2.9,2.05 -8.2,3.44 -11.1,2.16 -5.8,-2.49 -4.6,-8.75 -3.3,-13.62 6.1,-22.05 6.7,-44.76 9.1,-67.25 2.6,-25.09 13.6,-45.87 34.1,-60.94 6.1,-4.48 13.3,-11.74 21,-5.7 6.6,5.21 -0.3,12.46 -2.5,17.89 -6.7,16.34 -8.9,33.4 -11,50.58 -0.2,1.71 2.4,4.43 4.4,5.54 2.9,1.55 4.9,-0.17 6.3,-3.05 7.3,-15.4 7.8,-33.73 26.2,-53.35 z m 174.2,419.95 c 0.5,21.6 -4.5,41.98 -13,61.65 -3.7,8.59 -9.5,12.57 -18.3,5.82 -28.3,-21.89 -47.2,-86.59 -34.9,-119.99 0.9,-2.32 2.7,-5.43 4.7,-6.09 5.6,-1.83 4.8,3.54 5.7,6.48 2.8,8.36 1.5,24.48 10.9,22.21 11.3,-2.77 2.6,-16.78 1.9,-25.92 -0.6,-9.25 -1.3,-18.5 -1.3,-27.7 0.1,-3.32 1.5,-8.36 3.8,-9.53 3.6,-1.71 7,1.67 9.6,4.93 20.7,25.76 30,55.45 30.9,88.14 z m -195,-1871.7 c 3.9,-3.88 -9.9,-19.56 4.4,-22.71 8.5,-1.89 10.8,13.18 16.6,20.05 5.2,6.09 9.8,12.68 14.5,19.11 25.1,34.34 55.2,53.29 99.3,34.51 11.8,-4.99 13.2,2.6 9,12.24 -8.5,19.89 -13.6,40.33 -9.4,62.15 1,4.82 4.2,11.52 -2.4,13.13 -3.8,0.94 -9.9,-2.88 -13.7,-6.04 -34.8,-28.86 -68.9,-58.6 -104.1,-86.97 -13.9,-11.19 -22.1,-22.71 -14.2,-45.47 z m 153.5,619.63 c -37.7,4.65 -67.9,0.39 -100.8,-12.91 -34.5,-13.9 -48.7,-46.64 -35.5,-81.48 7,-18.45 15.9,-23.38 33.6,-15.9 28,11.8 51.4,29.75 76.9,59.38 -27,-6.09 -40.6,-19.61 -57.3,-26.47 -4.4,-1.89 -9.6,-7.04 -14.1,-1.06 -4.2,5.65 0.7,9.59 4.8,12.69 10.7,7.97 21.5,15.79 32.4,23.48 19,13.52 38.2,26.93 60,42.27 z m -734.4,-252.43 c -38,2.44 -70.9,-11.3 -102,-30.52 -9.2,-5.71 -18,-13.63 -13.2,-26.04 3.7,-9.58 13.5,-14.12 22.9,-12.9 31.9,4.1 66.6,-3.71 93,24.54 7.4,7.92 21.2,10.3 32.5,14.23 11.3,3.88 23,6.32 34.4,9.92 1.9,0.61 4,3.82 3.9,5.76 0,1.77 -2.6,4.76 -4.4,5.1 -22.3,3.54 -44.7,6.7 -67.1,9.91 z m 286.9,207.01 c 1.4,-18.78 7,-32.3 13.9,-45.32 18.8,-35.17 49.4,-58.82 80.6,-81.81 2.4,-1.83 6.6,-6.26 9.3,-1 1.5,2.94 1,7.87 -0.4,11.19 -6.1,14.74 -13,29.14 -19.2,43.82 -0.8,1.66 1,4.37 1.5,6.59 2.3,-0.89 4.7,-1.77 6.9,-2.77 4.2,-1.72 5.1,-9.97 11.2,-6.54 1.5,0.84 0.6,7.59 -0.7,11.03 -13.6,35.84 -33.6,66.69 -70,83.36 -20.6,9.48 -33.8,0.28 -33.1,-18.55 z m -116.7,-251.43 c -11.9,-6.37 -18,3.76 -26.1,6.81 -12.4,4.65 -17.7,1.5 -14.9,-11.36 6.8,-31.68 19.7,-60.76 41.1,-85.47 9.8,-11.47 18.3,-10.25 23.7,3.88 13.9,36.67 17.6,75.06 14.9,113.89 -1.1,15.07 -11,23.87 -26.5,24.81 -14.8,0.95 -29.3,0.5 -42.9,-6.64 -10.2,-5.32 -9.4,-11.14 -2.1,-18.17 10.1,-9.86 24.5,-14.74 32.8,-27.75 z m 557.1,334.13 c 4.4,0.66 10.8,-3.77 12.7,3.21 0.6,2.38 -3.3,6.93 -6.2,9.09 -18,13.63 -37.1,25.98 -54.3,40.49 -16.8,14.13 -38.8,22.66 -49,44.15 25.6,2.49 37.4,-21.05 56.9,-30.13 2.3,-1.11 4.1,-3.6 6.4,-4.55 12.7,-5.04 24.4,-26.86 34.9,-16.62 7.6,7.43 -11.4,23.66 -20,34.9 -12.9,17.01 -27.9,32.3 -47.8,41.33 -19,8.64 -32.7,4.76 -45.2,-11.91 -19.1,-25.37 -15.1,-53.07 11.5,-73.07 29.5,-22.27 65,-29.08 100.1,-36.89 z m -173.3,-734.35 c 5.2,33.9 6.7,65.08 -0.8,96.6 -5.1,21.11 -18.5,34.68 -37.3,43.82 -15.8,7.7 -31,7.75 -44.4,-4.6 -13,-12.02 -17.6,-27.42 -10.7,-43.54 14.9,-34.67 37.5,-64.26 64.7,-95.11 2.7,17.67 -5.4,27.97 -6.8,39.66 -0.7,5.82 -7.8,14.07 0.9,16.4 6.7,1.83 8.5,-8.25 11.7,-13.96 6.7,-12.24 6.6,-28.25 22.7,-39.27 z m -416.7,319.12 c -5.3,-8.7 -3.4,-18.23 -4.7,-27.09 -2.6,-17.11 -0.1,-30.69 18.3,-39 16.2,-7.36 24.6,-23.59 33.4,-38.44 6.4,-10.8 11.8,-8.42 16,1.22 8.8,20 19.2,41.05 42.4,43.82 49.7,5.92 101.4,13.29 134.6,-49.47 0,19.94 0.2,31.79 0,43.59 -0.3,14.41 -4,21.66 -21.6,16.84 -39.7,-10.91 -76.3,-0.99 -108.9,22.99 -9.8,7.2 -17.7,17.06 -27.4,26.76 -4.6,-8.7 -7,-15.01 -10.8,-20.28 -15.5,-21.49 -29.6,-22.37 -49,-4.26 -7.6,7.09 -10.4,18.56 -22.3,23.32 z m 757.4,683.45 c 12.4,1.44 15.7,13.29 23.4,20.05 2.5,2.21 5.2,6.76 9,2.1 1.3,-1.6 1.4,-5.26 0.4,-7.25 -2.8,-5.98 -6.7,-11.47 -9.6,-17.45 -0.8,-1.77 -0.7,-5.49 0.6,-6.48 1.6,-1.39 5.2,-2 7.1,-1.11 48.3,22.71 89.2,53.18 106.4,106.86 6.4,20.27 0.1,27.36 -20.8,25.25 -57.9,-5.81 -110.4,-60.71 -116.5,-121.97 z m -447.2,1.66 c -3.9,28.97 -6.5,57.16 -31,76.39 -14,10.96 -28.9,11.57 -44.9,4.1 -15.8,-7.32 -19.9,-20.5 -19.5,-36.07 0.7,-27.75 14.5,-50.74 27.8,-73.78 2,-3.43 6.7,-6.54 9.7,-2.22 5.1,7.54 8.5,14.96 13.6,0.17 5.6,-15.95 7.3,-34.01 23.2,-44.65 15.4,13.19 13.1,32.41 16.9,49.53 2,9.03 2.9,18.28 4.2,26.53 z m 17.7,-192.72 c 10.6,-27.75 21.8,-45.58 34.7,-62.42 8.1,-10.64 17.7,-19.5 30.7,-24.16 18.7,-6.7 45.4,-4.76 52.2,5.82 10.2,15.62 2.6,30.96 -4.8,44.81 -28.3,52.79 -75.9,77.22 -134.2,91.57 9.6,-22.33 27,-34.01 36.9,-51.07 4.6,-7.98 14.7,-14.19 9.7,-25.82 -6.8,5.76 -13.7,11.52 -25.2,21.27 z m 328.3,-248.27 c -17.5,28.25 -14.6,59.6 -23.6,88.52 -1,3.38 -3.3,6.37 -5.1,9.53 -3.2,-1.89 -7.9,-2.94 -9.6,-5.77 -20.2,-34.95 -34.6,-71.9 -34.1,-112.94 0.3,-21.72 8.6,-28.86 29.4,-27.81 14.8,0.72 28.8,5.37 42.2,11.36 29,12.96 38.1,29.19 31.4,60.32 -5.3,24.59 -17.5,46.25 -35.2,71.9 -3.5,-20.55 -0.2,-34.07 1.8,-47.91 2.3,-15.57 2,-31.47 2.8,-47.2 z m -62.6,-234.65 c 4.1,13.63 -3.8,20.94 -4.5,29.8 -0.3,4.05 -0.4,8.15 3.9,9.59 1.6,0.49 4.8,-1.61 6.4,-3.38 2.6,-2.94 4.2,-6.71 6.6,-9.86 5.9,-7.81 8.1,-24.32 19.1,-20.94 10.4,3.27 4.6,18.78 4.7,28.69 0.2,21.11 3.1,42.54 -5.5,62.98 -9.1,21.66 -26.2,34.24 -45,32.47 -19.1,-1.83 -52.9,-30.53 -58.6,-49.69 -2.9,-9.59 -1.7,-18.56 4.8,-26.2 18.8,-22.27 41.9,-38.67 68.1,-53.46 z m -701.1,200.8 c 16.9,-17.67 29.5,-38.05 47.4,-53.89 2.4,-2.11 6.9,-1.83 10.5,-2.72 0.5,2.6 1.8,5.26 1.5,7.7 -6,39.39 -15.8,77.83 -32.5,114.06 -8.7,18.89 -23.5,23.37 -42.8,14.95 -13.4,-5.81 -25.4,-14.4 -34.7,-25.92 -14.6,-17.95 -15.8,-35.07 -3.2,-54.73 17,-26.42 42,-43.54 69.3,-57.83 1.9,-1 5.2,-0.83 7.2,0.16 5.8,2.72 2.1,6.76 0.3,9.64 -9.9,15.07 -21.7,29.14 -23,48.58 z m 464,-38.99 c -9.4,0.88 -13.4,1.6 -17.4,1.49 -4.6,-0.22 -11.3,3.05 -12.8,-4.21 -0.6,-2.82 2.4,-7.37 5,-9.75 23.9,-21.32 49.3,-40.93 79.5,-52.4 31.4,-11.91 58.4,-2.1 76.1,25.59 15.5,24.15 10.6,43.54 -15.3,55.23 -35.2,15.9 -72.2,16.23 -109.6,9.14 -3.6,-0.67 -8.6,-1.33 -7.7,-6.76 0.8,-4.26 5.1,-4.98 8.9,-6.15 10.6,-3.32 29.6,1.78 28.6,-13.29 -0.6,-8.2 -18.5,2.33 -28.8,1.22 -3.9,-0.45 -7.9,-0.11 -6.5,-0.11 z m 166.9,229.6 c -7.5,14.07 -21.2,14.29 -30.6,21 -8.9,6.37 -14.7,2.82 -17,-7.04 -5.5,-22.82 -21.7,-33.07 -43.3,-34.89 -21.3,-1.78 -18.6,-10.37 -11.9,-25.87 13.1,-30.64 8.4,-60.05 -13.4,-85.86 -8.6,-10.14 -18,-19.61 -26.6,-29.75 -2.4,-2.77 -5.4,-6.93 -4.9,-9.92 1.2,-7.75 8.3,-4.26 12.9,-4.7 5.3,-0.56 10.7,0.11 16,0.16 39.5,0.45 77,-5.54 106.5,-35.45 6.9,-6.98 11.6,-3.71 15.5,2.6 7.6,12.52 14.6,25.37 22.1,37.95 9.3,15.84 21.3,30.74 17,52.84 -21.2,-12.57 -40.5,-26.47 -61.7,-35.95 -29.9,-13.35 -50.2,-2.49 -64,27.26 -23.8,51.62 8.5,102.09 46.8,114.49 12.1,3.94 24,8.59 36.6,13.13 z m -391,-109.12 c -0.4,-21.55 -9.3,-39.5 -21.1,-55.67 -12.4,-17.12 -26.5,-33.02 -40.1,-49.25 -6.8,-8.08 -18.6,-14.84 -20.3,-23.71 -3.1,-16.45 18.3,-9.69 24.4,-19.5 2.7,-4.43 7.8,-7.64 9.9,-12.24 7.1,-16.01 14.1,-10.3 22.9,-1.49 24,24.04 53,39.33 86.3,46.31 9.8,2.1 19.6,4.76 34.8,8.47 -39.2,32.52 -75.5,61.6 -96.8,107.08 z m 490.7,-445.15 c -10.8,13.85 -7.2,29.86 -9.2,45.21 -0.4,3.43 0.1,8.8 -6.1,7.08 -2.1,-0.55 -4.5,-2.93 -5.4,-5.09 -25.6,-58.5 30.7,-116.44 70.6,-119.98 23.7,-2.11 38,9.8 38.4,34.17 0.1,10.42 -2.1,21.11 -5,31.14 -10.2,36.33 -28.5,68.35 -54.9,95.38 -4.5,4.55 -8.1,13.19 -15.1,10.92 -8.3,-2.66 -8.7,-12.63 -9.2,-19.89 -2,-26.26 -2.9,-52.62 -4.1,-78.94 z m -162.9,-248.38 c 16.5,-42.38 39.2,-72.24 66.5,-89.02 42.6,-26.26 69.9,-15.18 82,33.24 1.8,7.7 4.1,15.45 4.8,23.32 3.2,30.02 -6.7,44.2 -36.5,51.96 -23.5,6.14 -47.6,4.26 -71.4,3.26 -9.8,-0.38 -24.8,4.49 -28.2,-7.31 -3.2,-10.91 11.3,-16.12 18.8,-22.99 6.8,-6.26 14.7,-11.35 21.6,-17.67 6.7,-6.2 17.5,-9.52 20.7,-24.76 -31.7,12.13 -50.7,35.45 -78.3,49.97 z m -347.1,69.85 c -8.7,3.05 -12.3,3.99 -15.6,5.48 -17.4,7.65 -19.2,6.98 -17.1,-8.41 5.1,-38.28 21.5,-71.24 51,-96.23 16.4,-13.79 30,-10.35 36.9,9.98 9.5,27.58 17.1,55.94 23,84.47 10.8,51.24 -7.8,69.74 -60,60.55 -16.6,-2.94 -39.7,-3.05 -46.1,-18.28 -5.1,-11.86 20.4,-18.01 27.9,-37.56 z m 558.2,321.28 c 48.4,19.39 95.1,58 113.7,90.35 14.2,24.65 10.9,45.31 -10,64.31 -10.1,9.25 -22.2,14.96 -35.2,18.06 -23.4,5.48 -39.6,-1.22 -48.5,-23.82 -16.1,-40.49 -26.1,-82.59 -31,-132.06 22.9,17.78 35.3,39.66 60.1,46.15 -14.5,-18.67 -29.1,-37.4 -49.1,-62.99 z m -92.4,-19.05 c -47.1,12.74 -93.2,18.06 -137.8,0.39 -39.8,-15.74 -44.2,-54.12 -10.7,-80.99 12.1,-9.75 25.9,-13.74 40.8,-11.85 49.4,6.2 89.8,30.3 124.9,64.31 1.6,1.6 2.6,4.65 2.5,6.98 -0.3,5.48 -5.2,5.43 -8.8,5.26 -25.2,-1.33 -50.3,-2.99 -75.4,-4.49 -3.7,-0.22 -8.7,0.06 -8.6,4.1 0.2,2.77 4.8,7.2 7.9,7.7 21.6,3.33 43.4,5.82 65.2,8.59 z m 81.4,477.49 c 12.3,21.99 24.4,43.98 36.8,65.86 1.1,1.89 4.6,3.94 6.4,3.61 5.2,-1.11 4.3,-5.43 2.7,-8.87 -8.7,-19.39 -17.7,-38.61 -26.2,-58.05 -2,-4.49 -6.6,-9.64 -2.7,-14.46 4.5,-5.76 9.7,-0.38 13.7,1.83 16.4,8.81 33,17.39 48.4,27.7 37.4,24.98 49.3,75.89 28.2,116.16 -11,21.1 -23.5,26.31 -45.7,18.11 -29.1,-10.86 -48.7,-30.74 -58.5,-60.82 -9.6,-29.58 -7.2,-59.94 -3.1,-91.07 z m 66,-527.13 c -10.8,-5.37 -16.7,-1.82 -22.5,1.06 -3.6,1.71 -7.7,3.82 -10.9,0.77 -4,-3.71 0.5,-6.75 2.6,-9.08 7.3,-7.76 14.7,-15.4 22.6,-22.49 15.7,-14.29 32.2,-28.03 52.5,-35.29 30.3,-10.91 48.6,-1.49 57.7,29.14 6.2,20.77 6.2,42.21 1.3,63.04 -6.2,26.42 -24.5,40.44 -52.2,39.33 -17.1,-0.72 -34.3,-4.05 -50.8,-8.64 -16.3,-4.55 -43.2,-4.55 -45.9,-17.23 -3.4,-15.79 22.1,-22.16 35.4,-32.3 3.1,-2.38 6.1,-4.87 10.2,-8.31 z m -388.8,658.86 c 44.2,-1.89 87.5,1.77 127.6,21.93 29.6,14.85 42.3,37.73 40.2,67.31 -0.9,13.01 -5.7,23.6 -17,29.74 -26,14.07 -54.4,19.72 -79.6,2.17 -34.6,-24.16 -57.3,-58.95 -77.7,-99.16 26.9,4.71 44.8,23.87 77.9,21.38 -28.5,-16.73 -52.6,-24.43 -71.4,-43.37 z m -33.3,-364.27 c 42.4,20.49 69.1,47.42 91.1,79.05 10.6,15.01 12.2,32.51 3.9,49.3 -13.8,27.75 -36.7,45.09 -66.5,52.57 -15.8,3.98 -29.5,-1.28 -36.7,-16.51 -20.4,-42.88 -18.8,-87.41 -7.7,-132.17 1.9,-7.87 8.2,-5.37 11.4,-1.05 6.9,9.14 8.6,22.82 26.8,31.07 -7.9,-22.16 -13.7,-38.11 -22.3,-62.26 z m -327,-45.64 c 16.5,25.31 18.5,46.58 24.8,66.36 1,3.21 5.1,7.92 7.6,7.75 4.6,-0.28 3.9,-5.15 3,-8.86 -6,-23.16 -12,-46.31 -17.8,-69.52 -1.2,-4.71 -3.6,-10.86 2.8,-13.19 2.7,-0.99 7.6,1.67 10.6,3.88 28.9,21.72 54.4,47.09 76,75.95 35.6,47.42 28.5,74.56 -24.7,99.65 -2.3,1.11 -4.9,1.94 -7.4,2.94 -37.7,15.23 -50.4,9.58 -61,-29.14 -11.3,-41.27 -16.7,-83.31 -13.9,-135.82 z m 509.5,-515.89 c 43.2,-0.83 77.4,10.92 109.1,30.3 11.6,7.04 19.2,17.84 21,32.19 4.7,36.5 -41.2,83.48 -77.6,79.38 -8.3,-0.95 -15.5,-4.49 -21.3,-9.97 -36.4,-34.57 -60.2,-77 -75.9,-124.2 -0.7,-2.16 -0.2,-5.54 1.1,-7.42 3,-4.38 7.1,-1.66 10.1,0.06 22.1,12.24 42.6,26.86 61.3,43.81 1.4,1.17 4.9,0.78 7,-0.05 2.5,-1.06 2.4,-3.83 0,-6.37 -10.4,-11.36 -20.9,-22.66 -34.8,-37.73 z m -542.5,41.88 c 5.1,9.58 12.3,7.26 18.3,7.48 13.2,0.44 26.6,0.11 39.9,0.39 3.4,0.11 8.4,-1.33 8.6,4.43 0.1,1.99 -2.2,5.26 -4.1,5.93 -49.7,16.89 -100.5,26.97 -152.6,14.56 -31.7,-7.53 -49.2,-37.39 -42.9,-66.52 7.3,-34.24 31.5,-48.69 68.7,-42.43 38,6.42 68.4,28.3 100,47.74 5.4,3.33 14.1,6.15 13.1,13.35 -1.2,8.48 -10.4,4.82 -16.2,5.38 -11.7,0.99 -22.7,3.43 -32.8,9.69 z m 419.1,-56.94 c 4.3,0.99 12.9,0.88 13.9,3.48 2.7,7.71 -5.2,10.97 -10.6,14.3 -27.4,16.89 -56.8,29.02 -88.8,34.06 -18,2.83 -34.9,-0.27 -44.5,-18.5 -10,-19.11 -16.4,-39.49 -14.9,-61.26 3.1,-47.75 42.1,-70.85 84.3,-49.41 15.3,7.75 29.9,17.5 43.2,28.36 12.9,10.47 30.7,15.9 36.7,33.79 -13,7.48 -28.1,3.87 -41.7,8.2 -3.3,1.05 -5.7,5.04 -8.5,7.64 3.4,1.28 7,3.71 10.4,3.49 6.6,-0.5 13,-2.55 20.5,-4.15 z m -310,15.23 c -8.2,-9.03 -9.9,-20.77 -13,-31.91 -5,-17.89 -10.1,-35.78 -15.3,-53.68 -1.5,-5.15 -3.8,-11.24 -10.1,-8.86 -5.4,2.05 -4.6,8.26 -3.5,13.8 4.5,22.1 8.7,44.25 12.7,66.47 0.7,3.49 1.1,8.2 -4,8.97 -2.2,0.33 -5.3,-1 -6.9,-2.6 -20.2,-19.33 -38.9,-40.11 -54.4,-63.48 -39.1,-58.55 -5.4,-109.79 61.7,-119.15 20.8,-2.88 31.8,5.31 38.9,25.97 3,8.7 4.6,18.12 5.3,27.31 3.3,41.22 0,82.37 -3.4,123.48 -0.4,5.31 -2.5,10.3 -8,13.68 z m -19.1,99.54 c -2.6,33.29 -0.3,66.09 -2.1,98.66 -3.3,58.44 -54.3,89.46 -107.9,66.64 -41.9,-17.78 -48.7,-40.88 -23,-77.78 18.5,-26.58 42.6,-47.74 68.8,-66.08 12.3,-8.48 25.4,-28.25 39.1,-18.45 8.8,6.43 -7.1,25.43 -11.3,39 -0.4,1.28 -1.2,2.38 -1.7,3.6 -1.2,3.77 -1.8,7.92 2.6,9.58 1.5,0.56 5.4,-1.71 6.5,-3.71 9.9,-17 19.4,-34.29 29,-51.46 z m 31.2,3.16 c 20.3,12.02 25,33.79 44.6,47.97 -1.6,-25.48 -20,-39.55 -28.7,-65.86 52.8,28.3 92.8,59.1 118.9,105.63 4.6,7.98 8,16.95 10.1,25.87 4.7,20.11 -4.5,38.44 -24.4,43.87 -20.3,5.54 -41.2,9.92 -62.9,6.98 -15.6,-2.16 -27.7,-8.25 -34.4,-23.26 -19.7,-44.1 -28.4,-89.8 -23.2,-141.2 z m 694.3,633.87 c -25.5,-12.52 -50.6,-10.36 -75.6,-9.64 -3.8,0.11 -8.4,0.67 -9.6,-4.1 -0.5,-2.1 0.4,-5.54 1.9,-7.15 22.9,-23.98 42.5,-51.46 70.5,-70.34 33.4,-22.55 70.4,-17.56 96.2,13.18 11.3,13.46 18.4,29.08 22.7,46.2 10.6,42.54 -2.7,61.32 -45.8,62.87 -37.7,1.39 -74,-7.31 -110.2,-16.4 -2.9,-0.72 -9.3,-0.66 -6.3,-6.53 1.6,-2.83 6.1,-5.54 9.4,-5.82 15.6,-1.22 31.2,-1.61 46.8,-2.27 z m -1140,-1410.77 c -0.4,-76.498 60.7,-327.763 89.8,-373.519 3.2,13.682 -0.9,26.535 -2.3,39.553 -4.5,43.704 -8.5,87.52 -12.4,131.283 -0.4,3.378 0.1,7.809 5.2,8.64 5.2,0.831 7.7,-3.378 8.5,-6.758 4.3,-18.113 8.5,-36.283 11.6,-54.619 9.3,-56.501 18.2,-113.001 28.3,-176.539 36.6,154.825 -12.3,312.587 -128.7,431.959 z m 793.8,617.25 c -20.8,-14.18 -57.6,-55.56 -74.8,-82.42 -22,-34.4 -24,-60.38 13.4,-99.82 12,-12.63 27.5,-20.66 44.1,-26.65 61.4,-22.15 96.5,7.15 87.2,72.24 -6.2,42.93 -23.7,81.54 -42.9,119.7 -2.3,4.6 -4.6,10.92 -11.3,7.81 -2.5,-1.16 -3.6,-6.53 -4.1,-10.13 -3.8,-24.43 -7.2,-48.92 -10.8,-73.34 -8,31.18 -6.2,61.43 -0.8,92.61 z m -218.6,374.8 c 13.1,0.16 32.3,3.43 43.9,20 30.1,42.93 44.9,90.01 33.7,143.02 -2.2,10.36 -7.8,10.03 -13.2,4.38 -14.7,-15.4 -28.4,-31.8 -42.8,-47.48 -3.9,-4.2 -7.6,-13.29 -14.9,-6.86 -5.6,4.87 -2.3,12.74 1.4,18.28 8.9,13.29 18.8,25.87 27.4,39.27 4.4,6.76 3.2,12.46 -6.7,12.96 -42.8,2.22 -102.9,-34.62 -120.2,-73.84 -16.9,-38.44 -2.4,-79.27 35.1,-98.15 15.8,-7.93 32.4,-12.14 56.3,-11.58 z m -38.3,-1041.24 c -58.8,-44.036 -119.7,-85.028 -174.3,-134.826 7.9,-7.311 12.4,-2.382 16.8,-0.5 69.9,29.582 140.3,56.891 213.6,77.608 126.9,35.948 178.3,136.378 211.4,254.428 -5.7,-1.56 -8.7,-1.56 -10.4,-2.94 -8.2,-6.81 -16.2,-13.79 -24,-20.99 -67.4,-62.38 -142,-111.85 -233.1,-133.12 -39.8,-9.3 -73.2,-31.85 -102.6,-59.49 -24.3,-22.765 -47.2,-46.862 -70.3,-70.848 -6.7,-6.813 -11.7,-15.179 -17.6,-22.821 33.7,19.498 63,42.486 93.7,63.369 30,20.386 58.4,44.59 96.8,50.13 z m -99.8,1548.2 c 4.8,-26.2 9.1,-52.68 28.9,-76.66 7.4,34.95 1.1,60.54 -29.6,76 -1.9,3.38 -3,7.47 -5.8,10.08 -14.7,14.24 -18.4,13.68 -24.6,-2.77 -14.1,-37.34 -5.1,-59.55 35.5,-86.3 3.8,17.22 -7,31.02 -9.4,46.3 -2,12.25 -5.4,23.49 5,33.35 z m 454.7,-360.61 c 12.4,0.44 16.8,11.91 24.8,18.33 45.4,36.79 89.1,24.82 109.5,-30.46 2.1,-5.93 3.1,-12.19 5.3,-20.61 12.2,19.83 14.1,40.27 21.8,58.61 13,31.41 32.1,42.43 66.1,38.22 22,-2.72 40.7,-12.69 56.1,-28.2 24.3,-24.42 27.9,-54.5 9.1,-83.7 -8.5,-13.35 -20.3,-24.65 -30.1,-37.17 -6.4,-8.08 -17.8,-11.96 -20.3,-25.97 11,0 21.3,0.66 31.4,-0.12 34.8,-2.76 56.6,-21.88 63.3,-56.11 4.1,-21.11 3.7,-42.65 -0.3,-63.7 -8.6,-44.81 -39.8,-62.15 -82.8,-48.31 -14.5,4.6 -24.4,19.5 -41.5,17.34 2,-14.29 5.1,-28.53 5.7,-42.87 1.6,-40.5 -23.5,-62.43 -63.2,-55.34 -10.4,1.83 -20.3,6.2 -34.4,10.64 6,-26.59 15.5,-51.74 1.1,-76.67 -14.1,-24.48 -38.8,-34.95 -63.1,-47.42 3.4,-3.15 4.8,-5.43 6.5,-5.87 29.2,-6.81 54.1,-19.61 56.3,-53.23 2.4,-38.28 -3.3,-75.17 -36.5,-100.82 -16.3,-12.57 -35.4,-10.63 -53.5,-4.32 -13.6,4.77 -26.4,11.8 -41.8,18.89 1.6,-21.49 4.6,-40.94 4.3,-60.32 -0.6,-57.34 -29.9,-82.43 -87.1,-75.78 -34.6,3.98 -63.6,19.77 -86.7,45.31 -31.3,34.62 -35.1,68.69 -14.8,110.51 3.8,7.87 13.1,13.79 9.3,27.59 -57.6,-34.24 -114.5,-67.58 -164.3,-111.68 -11.8,-10.47 -14.4,-24.98 -18.8,-38.88 -49.3,-154.94 -101.6,-308.82 -158.7,-461.1 -10.6,-28.198 -21.7,-56.172 -27.7,-86.472 25.9,26.756 51.4,53.899 77.7,80.212 29.4,29.47 61.6,56.5 102.8,66.69 105.9,26.26 189.7,88.74 269.4,158.76 11,9.7 22,19.45 33,29.14 5.3,4.6 11.5,7.31 18.3,4.37 9,-3.87 8.7,-12.29 8.3,-20.32 -0.3,-3.99 -0.8,-8.09 -1.9,-11.86 -14.3,-44.37 -25,-89.9 -42.7,-133.17 -38.4,-93.5 -105.8,-155.985 -202.4,-184.734 -76.8,-22.821 -150.5,-53.732 -226,-79.877 -67.3,-23.322 -112,-66.308 -141.9,-130.619 -70,-150.561 -157.5,-290.373 -264.6,-417.725 -32.5,-38.719 -62.8,-79.544 -89.7,-122.587 -2.8,-4.485 -6.5,-9.748 -12,-6.535 -5.8,3.378 -2.6,9.582 -0.1,14.126 7.7,13.959 14.7,28.471 24,41.433 25.6,35.729 50.6,72.068 78.7,105.804 44.7,53.453 80.8,112.614 120,169.725 9.1,13.239 9.8,25.425 7,41.102 -8.5,47.362 -19.8,94.003 -36.5,138.982 -41.1,110.567 -60.5,226.394 -84.1,341.175 -5.1,24.76 -5.4,50.4 -2.5,75.72 1.1,9.64 4.2,18.61 15.2,20.77 8.9,1.77 15.2,-3.54 20.5,-9.86 60.1,-70.46 113.3,-145.738 141.6,-234.701 20.9,-65.586 20,-134.053 12.5,-202.187 -1,-9.251 -2.8,-18.447 -3.8,-27.697 -0.2,-2.049 1.5,-4.265 3.4,-9.084 12,10.966 16.4,25.148 22.7,37.722 81.7,165.073 150.9,335.357 211.2,509.287 29.2,84.31 56.7,169.23 85.9,253.6 7.6,22.1 10.1,43.09 4.1,66.08 -6,23.04 -8.7,46.92 -12.7,69.24 -5.9,3.72 -8.6,1.11 -10.8,-2.38 -21.7,-35.01 -36.7,-42.37 -75.3,-34.34 -23.9,4.98 -45.7,15.18 -62.1,33.9 -22.9,26.2 -29.5,55.72 -16.9,89.18 6.9,18.34 19.2,33.79 31.6,56.17 -29.6,-10.02 -51.7,-22.65 -76.7,-25.92 -27.7,-3.6 -53.7,-1 -71.7,23.98 -19.4,26.92 -23.9,56.01 -10,86.8 10.8,23.88 31.1,35.51 55.4,41.72 31.1,7.97 62.6,7.97 95.1,1.77 -2.3,15.34 -13.5,19.33 -21.1,26.09 -19,17 -36.2,35.51 -49.8,57.11 -14.2,22.6 -21.4,46.2 -6,71.29 5.5,8.92 7.9,15.95 -2.7,23.49 -16.3,11.63 -13.2,27.47 -6.8,43.15 7.7,18.61 19.2,34.95 30.6,51.41 7.3,10.35 17.9,19.05 19.6,34.23 -32.2,-6.54 -63.2,-13.41 -94.4,-18.89 -14.3,-2.55 -29.2,-3.71 -43.8,-3.32 -25.3,0.72 -43.8,12.74 -46.7,30.07 -3.5,21.72 9.2,35.18 26.4,45.09 30.2,17.57 61.4,32.08 97.6,31.52 4.7,-0.05 11.8,-1.44 12.2,6.04 0.1,3.05 -3.6,6.82 -6.3,9.42 -13.7,12.74 -26.8,25.81 -37.1,41.65 -14.9,22.94 -13.3,45.32 0.7,67.47 13.4,21.16 33.3,34.68 56.6,42.1 25.1,8.04 43.8,-0.88 56.3,-24.65 3.7,-7.03 6,-14.79 9,-22.15 3,-7.26 5.9,-14.52 11.6,-28.48 6.5,30.3 11.2,54.07 16.7,77.67 5.3,22.82 13.9,42.93 40.1,49.8 8.7,2.32 13.1,31.62 7.6,44.7 -2,4.87 -5.6,9.03 -8.3,13.62 -21.3,35.18 -4.3,66.7 9.9,98.22 3.4,7.48 11.8,7.7 17,2.88 25.2,-23.1 56.5,-41.1 67.3,-76.83 1.1,-3.77 1.8,-10.14 4,-10.81 37.7,-11.46 25.7,-39.55 21.8,-68.85 36.4,25.81 65.2,9.2 92.7,-13.29 7.2,-5.93 13.5,-12.86 20.1,-19.45 7,-6.92 11.9,-4.04 14.3,3.66 2.3,7.53 3.4,15.56 4.4,23.49 1.3,10.35 12.8,21.49 5.8,29.8 -7.2,8.53 -19.4,-1.83 -29.6,-2.38 -32.4,-1.83 -43.4,8.42 -41.8,42.1 1.5,29.96 13.9,56.66 26.8,83.09 2.2,4.59 5.6,11.02 4,14.62 -3.4,7.42 -11.4,4.15 -17.4,2.88 -34.2,-7.2 -68.9,-6.98 -103.5,-6.2 -15,0.33 -29.1,3.54 -41.5,12.41 -28.5,20.43 -27,58.21 3.2,76.11 12.9,7.64 27.3,10.24 42.2,10.96 33.6,1.61 66.3,-3.98 98.2,-14.45 11,-3.61 22.2,-6.38 38.6,-11.08 -15.4,28.3 -28.8,50.85 -40,74.44 -12,25.32 -23.5,51.52 -12.5,80.49 5.1,13.52 -4.5,19.06 -11.9,26.54 -35.4,35.12 -44.2,77.72 -33.4,125.13 5.2,22.94 16.4,28.25 37.9,18.06 24.8,-11.74 44.7,-29.3 55.8,-54.9 6.5,-14.62 13.1,-29.52 16.3,-45.03 4,-19.5 12.2,-32.74 30.3,-43.37 24.4,-14.3 34.2,-40.44 37.4,-67.7 2,-17.06 0.4,-34.56 0.4,-57.44 21.4,14.18 31,33.29 45.3,47.47 17,16.9 16.3,17.67 -7.3,27.09 -8.6,3.44 -17.4,6.81 -23.5,14.46 -5.2,6.59 -10.7,15.62 -3.7,21.27 17.6,14.07 6,24.1 -1.9,35.9 -17.9,26.92 -31.6,55.89 -35.4,88.24 -4.2,34.67 10.5,47.25 44.6,39.22 47.1,-11.19 78.5,-38.5 85.7,-88.36 1.7,-12.18 3.1,-19 18.7,-17.17 14.1,1.66 13.3,-11.46 10,-19.94 -7,-17.28 -16,-33.62 -23.9,-50.52 -2.6,-5.59 -7.8,-12.68 1.8,-16.17 6,-2.17 14.1,-2.77 18.6,2.77 4,4.87 6.3,11.63 8.1,17.83 10.5,35.79 19.7,72.01 31.5,107.36 6.6,19.71 1.9,32.79 -13.5,45.25 -30.6,24.54 -54.1,55.12 -72.3,89.74 -3.1,5.93 -6.3,11.74 -9,17.84 -3.8,8.58 -8.3,18.28 -0.1,25.92 7.2,6.76 14.8,-0.33 21.9,-3.1 34.6,-13.63 55.2,-40.44 69.6,-73.29 3,-6.87 2.9,-16.23 13.9,-18.67 9.6,65.2 -3.3,126.25 -30.2,185.24 -5.9,13.02 -13.8,18.56 -28,15.01 -13,-3.26 -25.9,-5.15 -39.2,0.23 -14.9,6.03 -27.5,13.45 -19.2,32.23 4.4,9.86 -1.6,14.74 -6.1,21 -13,17.78 -18.1,38.05 -20.6,59.71 -3.3,28.97 -5.2,58.5 -17.7,85.75 -3.3,7.31 -5.5,15.4 1.2,22.22 6.7,6.7 14.7,4.93 22.4,2.16 46.3,-16.62 78.8,-48.58 100.9,-91.79 4.2,-8.26 6.8,-17.34 9.9,-26.09 3.1,-8.92 6.5,-14.9 15.6,-4.82 6.2,6.92 12.7,15.12 23.5,8.81 11.4,-6.65 9.3,-18.39 8.5,-28.75 -1.5,-19.5 -13.5,-34.68 -23.6,-50.13 -10.5,-15.96 -12.4,-29.86 -3.6,-47.98 21.6,-44.2 31,-91.73 28.5,-149.23 18.4,27.53 21.3,51.52 27.2,74.12 6.9,27.03 10.4,54.95 16.6,82.2 10.8,47.98 7,95.06 -5.5,142.15 -2.6,9.47 -6.5,17.28 -12.5,24.37 -13,15.18 -25.9,30.47 -39.2,45.31 -20.4,22.66 -24.5,33.96 -13.4,44.04 16.1,14.68 29.1,3.16 42.1,-6.43 3,-2.21 6.9,-3.1 10.6,-4.71 6.9,15.13 -2.3,34.29 18.9,45.48 12.5,6.59 7.4,28.59 -8.1,44.98 -19.7,20.78 -35,43.87 -41.2,71.96 -4.1,18.89 -20.1,42.32 17.3,47.64 8.7,1.27 5.1,13.79 5.6,21.27 2.2,37.72 17.9,69.46 43.3,96.38 22.4,23.77 37.4,21.33 51.6,-7.53 13.3,-26.92 17.3,-55.78 15.7,-85.58 -0.5,-8.76 -4.9,-19.11 7.3,-24.1 21.6,-8.86 17.3,-24.98 9.3,-39.66 -16.5,-30.41 -32.6,-61.43 -59.4,-84.64 -8.4,-7.2 -14.7,-13.91 -15,-26.26 -1.6,-70.52 -0.1,-140.92 6.4,-211.6 13.3,1.6 13.9,12.68 18.3,20.05 24.3,41.38 48,83.31 79.6,119.65 12.3,14.18 17.8,28.08 14.2,47.03 -4.2,22.27 -3.7,45.2 -1.2,67.74 1.6,13.8 8.2,23.71 24,16.18 10.5,-5.04 14,0.05 17.8,8.14 12.1,25.48 26.5,49.52 47.2,68.97 12.4,11.74 26.1,26.92 45,16.45 18.5,-10.25 13.1,-30.36 11.4,-47.2 -1.6,-16.12 -9.4,-30.46 -17.4,-44.42 -11.9,-20.94 -27.1,-39.5 -43.4,-57.17 -6.3,-6.76 -15.6,-13.4 -17.1,-21.33 -2.1,-11.18 12.7,-10.96 19,-17.22 5.9,-5.98 11.2,-12.46 8.2,-20.99 -2.9,-8.2 -10.4,-12.08 -18.9,-12.47 -7.9,-0.39 -17.1,-2.21 -23.6,0.94 -28.8,13.91 -44.3,-3.1 -59.5,-22.93 -53.9,-70.3 -102.6,-143.53 -115.9,-233.6 -11.5,-77.05 -38.3,-149.5 -62.7,-222.79 -4.5,-13.57 -11.3,-26.76 -11.3,-48.08 30.7,44.2 59.5,82.37 91,118.37 7.4,8.43 8.6,19.17 11.2,29.47 5.5,21.94 11,44.1 23.2,63.6 6.1,9.75 13.6,17.72 25.6,8.25 10.4,-8.14 17.5,0.94 25.3,4.27 28.7,12.18 58.9,16.89 89.6,17.61 27,0.67 36,-12.85 26.4,-38.33 -6.7,-17.95 -19.6,-31.52 -34.1,-43.6 -18.2,-15.12 -37.8,-27.42 -53.4,-46.75 -16.3,-20.27 -46,-24.1 -70.5,-19.94 -30.9,5.21 -45.8,-10.3 -62.4,-30.63 -41.8,-51.08 -71.1,-109.35 -100.7,-167.62 -4.2,-8.15 -6.4,-17.07 3.1,-19.95 11.1,-3.32 15.5,-26.31 32.3,-11.57 3.9,3.49 8.9,10.63 12.5,7.58 20.1,-16.61 29.2,3.27 41.7,11.42 10.1,6.59 20.6,12.07 32.4,15.12 36.9,9.47 57.3,-10.03 48.9,-47.36 -6.4,-27.98 -24.6,-46.31 -48.9,-60.16 -10.5,-6.04 -26.1,-7.54 -23.5,-27.14 1.2,-9.42 -9.1,-11.3 -17.7,-11.25 -9.9,0.11 -18.5,3.88 -25.8,9.69 -9.2,7.37 -16.1,5.05 -24.7,-1.32 -28.8,-21.5 -58.1,-42.44 -87.3,-63.49 -10.9,-7.86 -18.4,-16.72 -7.5,-29.47 5.3,-6.14 12.4,-11.63 18,0.62 1.1,2.43 1.6,5.15 2.9,7.47 28.2,49.58 63.4,56.84 107.9,21.49 24.2,-19.22 43.2,-43.31 59.8,-69.35 1.3,-2.05 4,-4.37 6.1,-4.48 4.9,-0.28 6.2,3.82 6.6,7.81 2,18.55 3,37.06 7.4,55.39 8.9,37.34 29,65.03 62.9,83.26 24,12.85 24.1,13.51 18.3,42.1 -3.6,17.33 -4,34.34 0.6,51.4 1.4,5.04 2.4,12.35 6,14.35 39.2,22.16 59.2,67.25 103,84.31 21.5,8.36 42.1,16.67 65.5,13.62 21,-2.77 28.6,-12.02 23.6,-32.46 -9.9,-39.82 -28.8,-74.34 -62.4,-99.71 -11.4,-8.64 -30.8,-13.46 -18.2,-35.78 3.1,-5.48 -4.4,-12.46 -10.2,-15.51 -11.7,-6.15 -23.7,-12.3 -36.3,-16.17 -13.5,-4.21 -12.7,-10.31 -6.3,-20.11 13.4,-20.83 18.3,-43.93 17.5,-68.58 -1,-32.24 -10.1,-60.32 -37.7,-79.88 -4.3,-2.99 -9.2,-5.7 -9.5,-12.96 17.3,-3.49 33.5,5.48 50.6,4.82 17.3,-0.66 34.5,-0.06 51.1,-6.7 20.5,-8.2 32.3,-22.33 34.5,-44.65 4.2,-42.82 -9.5,-79.27 -40.6,-108.18 -32.6,-30.42 -76.4,-31.97 -114,-6.65 -9.7,6.48 -16.3,17.72 -29.4,19.11 -5,-12.8 4,-23.32 5,-35.07 3.2,-35.61 -9.2,-58.99 -41.1,-74.39 -15.7,-7.59 -31.9,-13.57 -49.2,-16.06 -17.9,-2.61 -34,0.16 -48.5,12.57 -15.6,13.35 -17.5,13.24 -26.7,-5.04 -10.7,-21.27 -29,-38.44 -33.6,-62.82 -49.4,-46.14 -100,-91.23 -129.9,-153.88 -2.7,-5.76 -7.8,-10.8 -12.8,-14.96 -64.9,-54.28 -110.5,-120.81 -130.8,-203.79 -10.1,-41.16 -10.5,-41.05 32.2,-34.12 4,0.66 8.5,0.39 11.7,2.27 10.2,5.98 22,11.02 29.5,19.66 8.7,9.92 -4.3,18.89 -6.4,28.64 -1.8,7.76 -3.7,15.62 -4,23.49 -1.7,40.44 29.3,67.86 69.3,61.82 15,-2.27 27.3,-9.86 38.9,-19.17 24.3,-19.44 24.6,-19.77 47.4,-0.94 11.8,9.75 26,17.34 36,34.07 -11.4,0.55 -19.1,0.77 -26.8,1.33 -38.4,2.88 -69.7,29.08 -73.6,61.26 -3.5,29.47 21.3,56.17 61.4,67.75 23.5,6.81 47.3,6.15 71.3,6.65 11.6,0.22 29.2,-5.99 33.3,3.27 5.2,11.79 -13.5,15.95 -21,24.15 -6.3,6.87 -13.5,12.85 -19.9,19.55 -15.2,15.79 -20.7,33.9 -11.6,54.79 2.7,6.09 6.1,11.79 5,18.83"
         style="fill:#000000;fill-opacity:1;fill-rule:nonzero;stroke:none;stroke-width:1.71234584"
         id="path1072"
         inkscape:connector-curvature="0" />
    </g>
    <g
       aria-label="Salem"
       transform="matrix(0.49386281,0,0,0.49386281,589.58303,153.81197)"
       style="font-style:normal;font-variant:normal;font-weight:normal;font-stretch:normal;font-size:16px;line-height:0;font-family:'URW Gothic L';-inkscape-font-specification:'URW Gothic L, Normal';font-variant-ligatures:normal;font-variant-caps:normal;font-variant-numeric:normal;font-feature-settings:normal;text-align:start;letter-spacing:0px;word-spacing:0px;writing-mode:lr-tb;text-anchor:start;opacity:1;vector-effect:none;fill:#000000;fill-opacity:1;stroke:#000000;stroke-width:1.01242697;stroke-linecap:butt;stroke-linejoin:miter;stroke-miterlimit:4;stroke-dasharray:none;stroke-dashoffset:0;stroke-opacity:1"
       id="flowRoot12121">
      <path
         d="m -1705.2005,-274.49299 q 0.3,-0.42 0.78,-0.42 0.54,-0.06 0.96,0.18 0.42,0.18 0.66,0.54 0.24,0.36 0.06,0.78 -1.14,2.34 -3.3,3.6 -2.1,1.26 -4.62,1.74 -2.52,0.42 -5.22,0.18 -2.64,-0.24 -4.8,-0.9 -0.24,4.14 -1.68,7.56 -1.38,3.42 -3.72,5.88 -2.28,2.46 -5.4,3.78 -3.12,1.38 -6.78,1.38 -5.28,0 -8.88,-1.98 -3.6,-1.92 -5.4,-4.86 -1.86,-2.94 -1.92,-6.36 -0.06,-3.42 1.68,-6.36 1.74,-2.94 5.34,-4.86 3.6,-1.98 9.06,-1.98 1.92,0 3.84,0.42 1.92,0.42 3.72,1.08 -1.14,-2.94 -2.88,-5.94 -1.74,-3 -3.66,-6 -1.92,-3.06 -3.84,-6.18 -1.92,-3.12 -3.48,-6.24 -1.5,-3.18 -2.46,-6.42 -0.96,-3.24 -0.96,-6.54 0,-4.14 1.32,-7.26 1.38,-3.18 3.48,-5.34 2.1,-2.16 4.68,-3.24 2.64,-1.14 5.16,-1.14 2.64,0 4.74,0.78 2.16,0.78 3.54,2.46 1.44,1.62 2.04,4.2 0.66,2.52 0.24,6.06 -0.06,0.6 -0.54,0.84 -0.42,0.24 -0.96,0.24 -0.48,-0.06 -0.9,-0.36 -0.42,-0.36 -0.36,-0.9 0.18,-1.56 0,-3.3 -0.12,-1.74 -0.78,-3.18 -0.6,-1.44 -1.74,-2.34 -1.14,-0.96 -2.94,-0.96 -1.26,0 -2.82,0.84 -1.5,0.78 -2.82,2.46 -1.26,1.62 -2.16,4.14 -0.84,2.46 -0.84,5.82 0,3.54 1.2,7.02 1.2,3.42 3.06,6.78 1.92,3.36 4.14,6.72 2.28,3.36 4.38,6.72 2.1,3.36 3.78,6.78 1.68,3.42 2.4,6.9 1.92,0.6 4.2,1.02 2.34,0.36 4.5,0.18 2.22,-0.18 4.02,-1.08 1.86,-0.9 2.88,-2.94 z m -24.42,3 q -4.08,-2.4 -9,-2.4 -4.02,0 -6.84,1.5 -2.76,1.44 -4.26,3.66 -1.5,2.16 -1.68,4.74 -0.24,2.52 0.84,4.74 1.08,2.16 3.48,3.6 2.4,1.5 6.18,1.5 3.42,0 5.82,-1.74 2.4,-1.68 3.78,-4.26 1.44,-2.58 1.86,-5.58 0.42,-3.06 -0.18,-5.76 z"
         style="font-style:normal;font-variant:normal;font-weight:normal;font-stretch:normal;font-size:60px;font-family:charlotte;-inkscape-font-specification:charlotte;fill:#000000;stroke-width:0.39100054"
         id="path12228"
         inkscape:connector-curvature="0" />
      <path
         d="m -1699.087,-266.09299 q 1.14,-0.06 2.34,-1.56 1.26,-1.56 2.34,-3.6 1.14,-2.04 1.98,-4.08 0.9,-2.04 1.26,-3.12 0.48,-1.5 1.32,-2.4 0.9,-0.9 1.92,-1.26 1.02,-0.36 1.98,-0.18 1.02,0.18 1.74,0.84 0.72,0.66 1.08,1.8 0.36,1.08 0.06,2.64 -0.12,0.66 -0.36,2.1 -0.18,1.38 -0.36,3.12 -0.12,1.74 -0.12,3.6 0,1.86 0.3,3.36 0.3,1.5 0.9,2.52 0.66,0.96 1.86,0.96 2.58,0 5.7,-3.36 3.18,-3.36 6.12,-9.78 0.24,-0.42 0.72,-0.42 0.48,0 0.84,0.24 0.42,0.18 0.66,0.6 0.3,0.36 0.24,0.66 -1.92,4.32 -4.08,7.44 -2.16,3.12 -4.44,5.16 -2.22,1.98 -4.44,2.94 -2.22,0.96 -4.2,0.96 -2.58,0 -4.2,-1.32 -1.56,-1.38 -2.46,-3.42 -0.9,-2.1 -1.2,-4.56 -0.3,-2.52 -0.3,-4.74 -1.2,2.22 -2.88,4.44 -1.62,2.16 -3.36,3.12 -1.68,0.9 -3.3,1.02 -1.62,0.06 -2.88,-0.6 -1.26,-0.72 -2.04,-2.04 -0.78,-1.38 -0.78,-3.36 0,-2.1 0.84,-4.2 0.78,-2.1 2.16,-3.78 1.44,-1.74 3.3,-2.82 1.92,-1.08 4.02,-1.08 1.02,0 1.92,0.42 0.9,0.36 1.5,0.9 0.6,0.54 0.78,1.14 0.18,0.6 -0.18,1.08 -0.3,0.36 -0.66,0.42 -0.3,0.06 -0.78,0.06 -0.84,0 -1.68,0.78 -0.78,0.72 -1.5,1.86 -0.66,1.14 -1.2,2.46 -0.48,1.32 -0.78,2.46 -0.24,1.08 -0.24,1.86 0.06,0.72 0.54,0.72 z"
         style="font-style:normal;font-variant:normal;font-weight:normal;font-stretch:normal;font-size:60px;font-family:charlotte;-inkscape-font-specification:charlotte;fill:#000000;stroke-width:0.39100054"
         id="path12230"
         inkscape:connector-curvature="0" />
      <path
         d="m -1659.3361,-320.03299 q 1.68,-2.34 3.9,-3.84 2.28,-1.56 4.62,-2.16 2.34,-0.66 4.56,-0.36 2.28,0.3 4.02,1.74 1.8,1.38 2.88,3.9 1.08,2.52 1.08,6.3 0,3.12 -1.08,6.54 -1.02,3.42 -2.82,6.96 -1.74,3.48 -4.08,6.9 -2.28,3.36 -4.8,6.48 -2.52,3.06 -5.1,5.7 -2.52,2.58 -4.8,4.44 -0.06,1.56 -0.06,3.72 0,2.1 0.18,4.38 0.18,2.22 0.54,4.44 0.42,2.16 1.08,3.84 0.66,1.68 1.62,2.7 1.02,1.02 2.46,0.96 1.5,-0.06 3.06,-1.02 1.62,-1.02 3.18,-2.52 1.62,-1.56 3.06,-3.48 1.5,-1.92 2.7,-3.78 1.26,-1.86 2.16,-3.54 0.9,-1.68 1.32,-2.76 0.36,-0.42 0.78,-0.48 0.48,-0.12 0.9,0.06 0.42,0.18 0.66,0.6 0.24,0.36 0.12,0.9 -0.72,1.8 -1.92,4.02 -1.2,2.22 -2.82,4.5 -1.56,2.28 -3.48,4.44 -1.86,2.16 -4.02,3.84 -2.1,1.68 -4.38,2.7 -2.28,1.02 -4.62,1.02 -3.66,0 -5.82,-2.4 -2.1,-2.4 -3.24,-6.12 -1.08,-3.72 -1.38,-8.16 -0.3,-4.44 -0.3,-8.58 0,-5.7 0.66,-11.76 0.72,-6.12 1.98,-11.76 1.26,-5.64 3.06,-10.44 1.86,-4.8 4.14,-7.92 z m 6.06,3.78 q -2.04,3.6 -3.42,7.92 -1.32,4.32 -2.16,8.94 -0.84,4.62 -1.32,9.36 -0.42,4.68 -0.66,9.06 2.1,-1.86 4.44,-4.26 2.34,-2.46 4.56,-5.28 2.22,-2.82 4.2,-5.88 2.04,-3.06 3.54,-6.12 1.56,-3.12 2.46,-6.12 0.9,-3.06 0.9,-5.82 0,-4.32 -1.38,-6.18 -1.38,-1.86 -3.36,-1.8 -1.92,0.06 -4.08,1.74 -2.16,1.68 -3.72,4.44 z"
         style="font-style:normal;font-variant:normal;font-weight:normal;font-stretch:normal;font-size:60px;font-family:charlotte;-inkscape-font-specification:charlotte;fill:#000000;stroke-width:0.39100054"
         id="path12232"
         inkscape:connector-curvature="0" />
      <path
         d="m -1628.9592,-275.39299 q -0.72,0.3 -1.38,0.84 -0.66,0.54 -1.2,1.26 -0.54,0.66 -0.96,1.44 -0.36,0.72 -0.54,1.44 0.9,0.18 1.98,0.18 1.08,-0.06 2.04,-0.36 1.02,-0.3 1.68,-0.96 0.72,-0.66 0.84,-1.74 0.12,-1.02 -0.66,-1.74 -0.78,-0.72 -1.8,-0.36 z m -4.44,7.74 q 0.12,3.24 1.98,5.04 1.92,1.74 4.98,1.26 2.7,-0.42 4.92,-1.62 2.22,-1.2 4.02,-2.94 1.8,-1.74 3.18,-3.9 1.38,-2.22 2.46,-4.68 0.18,-0.42 0.6,-0.48 0.48,-0.12 0.9,0.12 0.48,0.18 0.78,0.6 0.3,0.36 0.18,0.84 -1.38,3.06 -3.06,5.52 -1.62,2.46 -3.66,4.38 -1.98,1.86 -4.44,3.18 -2.4,1.26 -5.46,1.98 -2.82,0.66 -5.58,0.36 -2.76,-0.3 -4.92,-1.56 -2.16,-1.26 -3.48,-3.48 -1.38,-2.22 -1.38,-5.46 0,-2.4 0.9,-4.56 0.9,-2.22 2.46,-3.78 1.62,-1.56 3.78,-2.34 2.22,-0.84 4.74,-0.48 1.32,0.18 2.46,0.72 1.2,0.54 2.04,1.44 0.9,0.9 1.26,2.16 0.36,1.2 0.06,2.64 -0.36,1.62 -1.38,2.76 -1.02,1.08 -2.4,1.68 -1.38,0.6 -2.94,0.78 -1.56,0.12 -3,-0.18 z"
         style="font-style:normal;font-variant:normal;font-weight:normal;font-stretch:normal;font-size:60px;font-family:charlotte;-inkscape-font-specification:charlotte;fill:#000000;stroke-width:0.39100054"
         id="path12234"
         inkscape:connector-curvature="0" />
      <path
         d="m -1611.9286,-273.83299 q 0,-1.44 0.96,-2.04 1.02,-0.6 2.4,-0.6 1.56,0 2.64,0.84 1.08,0.84 1.08,2.16 0,1.8 0.24,4.08 0.24,2.22 0.6,4.2 0.42,1.92 1.02,3.24 0.6,1.32 1.32,1.32 0.72,0 1.14,-1.62 0.42,-1.62 0.78,-4.02 0.36,-2.4 0.78,-5.22 0.48,-2.88 1.26,-5.28 0.78,-2.4 2.04,-4.02 1.26,-1.62 3.18,-1.62 1.38,0 2.22,1.2 0.9,1.2 1.38,3 0.48,1.8 0.66,3.96 0.24,2.1 0.3,3.9 0.06,1.8 0.12,3 0.06,1.2 0.18,1.2 0.12,0 0.48,-0.72 0.36,-0.78 0.78,-1.68 0.42,-0.9 0.72,-1.68 0.36,-0.84 0.42,-1.02 0.84,-2.16 2.1,-3.66 1.32,-1.56 3.12,-1.56 1.86,0 2.46,1.56 0.6,1.5 0.6,3.78 0,0.54 -0.12,2.04 -0.12,1.5 -0.12,3.12 0,1.56 0.3,2.82 0.3,1.2 1.14,1.2 1.68,0 3.42,-1.5 1.74,-1.5 3.24,-3.54 1.56,-2.04 2.7,-4.14 1.14,-2.16 1.62,-3.36 0.3,-0.48 0.72,-0.6 0.48,-0.12 0.9,0.06 0.42,0.18 0.66,0.66 0.24,0.42 0.18,0.96 -0.84,2.4 -2.4,5.1 -1.56,2.7 -3.72,4.98 -2.16,2.28 -4.74,3.78 -2.58,1.5 -5.34,1.5 -1.74,-0.06 -2.88,-0.84 -1.14,-0.84 -1.86,-2.1 -0.66,-1.26 -0.96,-2.76 -0.3,-1.56 -0.42,-3.06 -0.48,0.96 -1.14,1.86 -0.6,0.9 -1.32,1.62 -0.72,0.72 -1.62,1.2 -0.84,0.42 -1.86,0.42 -1.5,0 -2.46,-0.9 -0.9,-0.9 -1.44,-2.28 -0.48,-1.38 -0.66,-3 -0.18,-1.62 -0.18,-3.12 0,-2.52 0,-3.48 0,-0.96 -0.06,-1.44 -0.48,2.82 -1.08,6.12 -0.54,3.3 -1.44,6.18 -0.9,2.88 -2.28,4.8 -1.38,1.92 -3.48,1.92 -1.92,0 -3.3,-0.9 -1.32,-0.96 -2.28,-2.4 -0.9,-1.5 -1.44,-3.36 -0.54,-1.86 -0.84,-3.72 -0.24,-1.86 -0.3,-3.6 -0.12,-1.74 -0.12,-2.94 z"
         style="font-style:normal;font-variant:normal;font-weight:normal;font-stretch:normal;font-size:60px;font-family:charlotte;-inkscape-font-specification:charlotte;fill:#000000;stroke-width:0.39100054"
         id="path12236"
         inkscape:connector-curvature="0" />
    </g>
    <g
       aria-label="Aleykoum"
       transform="matrix(0.27823327,0,0,0.27823327,269.96516,123.8134)"
       style="font-style:normal;font-variant:normal;font-weight:normal;font-stretch:normal;font-size:16px;line-height:0;font-family:'URW Gothic L';-inkscape-font-specification:'URW Gothic L, Normal';font-variant-ligatures:normal;font-variant-caps:normal;font-variant-numeric:normal;font-feature-settings:normal;text-align:start;letter-spacing:0px;word-spacing:0px;writing-mode:lr-tb;text-anchor:start;opacity:1;vector-effect:none;fill:#000000;fill-opacity:1;stroke:#000000;stroke-width:1.79705334;stroke-linecap:butt;stroke-linejoin:miter;stroke-miterlimit:4;stroke-dasharray:none;stroke-dashoffset:0;stroke-opacity:1"
       id="flowRoot12121-3">
      <path
         d="m -1744.0805,-290.87299 q 1.5,-0.48 3.24,-0.66 1.8,-0.18 3.6,-0.12 1.86,0.06 3.6,0.24 1.8,0.18 3.24,0.42 1.62,-5.1 3.24,-10.2 1.62,-5.1 3.24,-9.66 1.68,-4.56 3.36,-8.28 1.74,-3.78 3.48,-6.12 1.62,-2.28 3.42,-3.24 1.86,-1.02 3.78,-1.02 3.12,0 5.4,1.98 2.34,1.98 4.02,5.4 1.68,3.42 2.82,8.04 1.14,4.62 1.92,9.9 0.84,5.28 1.38,10.98 0.54,5.64 1.08,11.22 2.34,1.44 4.32,3.42 2.04,1.98 3.48,4.44 1.44,2.46 2.28,5.4 0.84,2.88 0.84,6.12 0,4.5 -1.98,6.84 -1.98,2.34 -4.74,2.34 -2.76,0 -4.74,-1.56 -1.92,-1.56 -3.3,-4.02 -1.32,-2.52 -2.16,-5.58 -0.78,-3.12 -1.32,-6.18 -0.48,-3.12 -0.72,-5.88 -0.24,-2.76 -0.36,-4.56 -1.98,-0.66 -4.56,-1.38 -2.52,-0.72 -5.28,-1.38 -2.7,-0.66 -5.46,-1.2 -2.7,-0.6 -5.04,-1.02 -2.34,-0.48 -4.14,-0.78 -1.74,-0.3 -2.52,-0.36 -1.5,4.56 -3.24,9.06 -1.74,4.44 -3.78,8.52 -1.98,4.08 -4.26,7.56 -2.28,3.48 -4.86,6.06 -2.58,2.58 -5.46,4.02 -2.94,1.44 -6.12,1.44 -1.92,0 -3.42,-0.66 -1.56,-0.66 -2.58,-1.8 -1.08,-1.14 -1.62,-2.64 -0.6,-1.5 -0.6,-3.12 0,-1.86 0.84,-3.78 0.84,-1.92 2.4,-3.6 0.54,-0.54 1.08,-0.48 0.48,0 0.84,0.42 0.36,0.36 0.48,1.02 0.06,0.6 -0.24,1.14 -2.7,2.58 -2.7,5.28 0,1.14 0.36,2.16 0.36,1.08 1.08,1.86 0.72,0.84 1.74,1.32 1.02,0.48 2.34,0.48 2.82,0 5.34,-1.38 2.52,-1.38 4.8,-3.84 2.28,-2.46 4.26,-5.76 2.04,-3.3 3.84,-7.14 1.86,-3.84 3.48,-8.04 1.62,-4.26 3.06,-8.46 -3.6,-0.48 -6.72,-0.06 -3.12,0.42 -6.18,1.26 -1.26,-0.06 -1.68,-0.66 -0.36,-0.6 -0.18,-1.32 0.18,-0.78 0.78,-1.44 0.66,-0.66 1.5,-0.96 z m 16.26,0.3 q 6.54,1.2 12.96,2.64 6.48,1.38 12.9,3.66 -0.3,-4.32 -0.72,-9.06 -0.42,-4.8 -1.02,-9.42 -0.54,-4.62 -1.32,-8.82 -0.72,-4.26 -1.68,-7.44 -0.9,-3.18 -2.1,-5.04 -1.2,-1.92 -2.64,-1.92 -1.44,0 -3,1.98 -1.56,1.92 -3.18,5.1 -1.56,3.12 -3.12,7.08 -1.5,3.9 -2.88,7.86 -1.32,3.9 -2.46,7.44 -1.08,3.54 -1.74,5.94 z m 34.86,11.88 q 0.06,0.9 0.24,2.82 0.24,1.86 0.54,4.2 0.36,2.34 0.84,4.86 0.48,2.46 1.14,4.5 0.72,2.04 1.62,3.36 0.96,1.32 2.16,1.32 1.38,0 1.38,-4.38 0,-2.4 -0.54,-4.8 -0.54,-2.4 -1.56,-4.56 -1.02,-2.16 -2.52,-4.02 -1.44,-1.92 -3.3,-3.3 z"
         style="font-style:normal;font-variant:normal;font-weight:normal;font-stretch:normal;font-size:60px;font-family:charlotte;-inkscape-font-specification:charlotte;fill:#000000;stroke-width:1.79705334"
         id="path12211"
         inkscape:connector-curvature="0" />
      <path
         d="m -1665.4298,-320.03299 q 1.68,-2.34 3.9,-3.84 2.28,-1.56 4.62,-2.16 2.34,-0.66 4.56,-0.36 2.28,0.3 4.02,1.74 1.8,1.38 2.88,3.9 1.08,2.52 1.08,6.3 0,3.12 -1.08,6.54 -1.02,3.42 -2.82,6.96 -1.74,3.48 -4.08,6.9 -2.28,3.36 -4.8,6.48 -2.52,3.06 -5.1,5.7 -2.52,2.58 -4.8,4.44 -0.06,1.56 -0.06,3.72 0,2.1 0.18,4.38 0.18,2.22 0.54,4.44 0.42,2.16 1.08,3.84 0.66,1.68 1.62,2.7 1.02,1.02 2.46,0.96 1.5,-0.06 3.06,-1.02 1.62,-1.02 3.18,-2.52 1.62,-1.56 3.06,-3.48 1.5,-1.92 2.7,-3.78 1.26,-1.86 2.16,-3.54 0.9,-1.68 1.32,-2.76 0.36,-0.42 0.78,-0.48 0.48,-0.12 0.9,0.06 0.42,0.18 0.66,0.6 0.24,0.36 0.12,0.9 -0.72,1.8 -1.92,4.02 -1.2,2.22 -2.82,4.5 -1.56,2.28 -3.48,4.44 -1.86,2.16 -4.02,3.84 -2.1,1.68 -4.38,2.7 -2.28,1.02 -4.62,1.02 -3.66,0 -5.82,-2.4 -2.1,-2.4 -3.24,-6.12 -1.08,-3.72 -1.38,-8.16 -0.3,-4.44 -0.3,-8.58 0,-5.7 0.66,-11.76 0.72,-6.12 1.98,-11.76 1.26,-5.64 3.06,-10.44 1.86,-4.8 4.14,-7.92 z m 6.06,3.78 q -2.04,3.6 -3.42,7.92 -1.32,4.32 -2.16,8.94 -0.84,4.62 -1.32,9.36 -0.42,4.68 -0.66,9.06 2.1,-1.86 4.44,-4.26 2.34,-2.46 4.56,-5.28 2.22,-2.82 4.2,-5.88 2.04,-3.06 3.54,-6.12 1.56,-3.12 2.46,-6.12 0.9,-3.06 0.9,-5.82 0,-4.32 -1.38,-6.18 -1.38,-1.86 -3.36,-1.8 -1.92,0.06 -4.08,1.74 -2.16,1.68 -3.72,4.44 z"
         style="font-style:normal;font-variant:normal;font-weight:normal;font-stretch:normal;font-size:60px;font-family:charlotte;-inkscape-font-specification:charlotte;fill:#000000;stroke-width:1.79705334"
         id="path12213"
         inkscape:connector-curvature="0" />
      <path
         d="m -1635.053,-275.39299 q -0.72,0.3 -1.38,0.84 -0.66,0.54 -1.2,1.26 -0.54,0.66 -0.96,1.44 -0.36,0.72 -0.54,1.44 0.9,0.18 1.98,0.18 1.08,-0.06 2.04,-0.36 1.02,-0.3 1.68,-0.96 0.72,-0.66 0.84,-1.74 0.12,-1.02 -0.66,-1.74 -0.78,-0.72 -1.8,-0.36 z m -4.44,7.74 q 0.12,3.24 1.98,5.04 1.92,1.74 4.98,1.26 2.7,-0.42 4.92,-1.62 2.22,-1.2 4.02,-2.94 1.8,-1.74 3.18,-3.9 1.38,-2.22 2.46,-4.68 0.18,-0.42 0.6,-0.48 0.48,-0.12 0.9,0.12 0.48,0.18 0.78,0.6 0.3,0.36 0.18,0.84 -1.38,3.06 -3.06,5.52 -1.62,2.46 -3.66,4.38 -1.98,1.86 -4.44,3.18 -2.4,1.26 -5.46,1.98 -2.82,0.66 -5.58,0.36 -2.76,-0.3 -4.92,-1.56 -2.16,-1.26 -3.48,-3.48 -1.38,-2.22 -1.38,-5.46 0,-2.4 0.9,-4.56 0.9,-2.22 2.46,-3.78 1.62,-1.56 3.78,-2.34 2.22,-0.84 4.74,-0.48 1.32,0.18 2.46,0.72 1.2,0.54 2.04,1.44 0.9,0.9 1.26,2.16 0.36,1.2 0.06,2.64 -0.36,1.62 -1.38,2.76 -1.02,1.08 -2.4,1.68 -1.38,0.6 -2.94,0.78 -1.56,0.12 -3,-0.18 z"
         style="font-style:normal;font-variant:normal;font-weight:normal;font-stretch:normal;font-size:60px;font-family:charlotte;-inkscape-font-specification:charlotte;fill:#000000;stroke-width:1.79705334"
         id="path12215"
         inkscape:connector-curvature="0" />
      <path
         d="m -1618.5623,-240.05299 q 1.44,-2.4 3.42,-4.44 1.98,-1.98 4.26,-3.72 2.28,-1.74 4.74,-3.3 2.52,-1.56 4.98,-3 0.06,-1.44 0.06,-2.94 0.06,-1.5 0.06,-3.24 0.06,-1.8 0.06,-3.9 0,-2.16 0,-4.86 -0.54,1.92 -1.38,3.84 -0.84,1.92 -2.04,3.48 -1.14,1.5 -2.76,2.52 -1.62,0.96 -3.78,0.96 -1.86,0 -3.12,-0.96 -1.26,-1.02 -2.1,-2.58 -0.78,-1.62 -1.2,-3.66 -0.36,-2.04 -0.54,-4.14 -0.12,-2.1 -0.06,-4.08 0.06,-2.04 0.12,-3.54 0.18,-2.04 1.5,-2.88 1.32,-0.9 2.82,-0.9 1.5,0 2.46,0.78 1.02,0.78 0.96,2.64 -0.12,4.38 -0.12,7.32 0.06,2.94 0.3,4.74 0.24,1.8 0.66,2.58 0.42,0.72 1.14,0.72 1.32,0 2.4,-1.86 1.08,-1.86 1.98,-4.44 0.9,-2.64 1.5,-5.46 0.66,-2.88 1.08,-4.86 0.06,-1.74 1.08,-2.4 1.02,-0.66 2.34,-0.66 0.78,0 1.56,0.24 0.78,0.24 1.44,0.66 0.72,0.36 1.14,0.9 0.48,0.48 0.54,1.02 0.18,5.28 0.18,10.2 0.06,4.92 -0.12,9.84 1.62,-1.38 3.42,-2.94 1.8,-1.62 3.48,-3.48 1.68,-1.92 3.12,-4.02 1.5,-2.16 2.52,-4.62 0.36,-0.6 0.84,-0.72 0.48,-0.12 0.84,0.12 0.42,0.24 0.66,0.72 0.24,0.48 0.12,0.96 -1.26,3 -3.06,5.52 -1.8,2.46 -3.84,4.62 -1.98,2.1 -4.14,3.84 -2.1,1.74 -4.02,3.18 -0.12,3.54 -0.36,7.56 -0.24,4.08 -0.9,8.1 -0.66,4.08 -1.98,7.86 -1.26,3.78 -3.42,6.84 -3,4.14 -6.18,5.94 -3.12,1.86 -6.06,1.86 -2.1,0 -3.9,-0.84 -1.74,-0.84 -3.06,-2.34 -1.38,-1.5 -2.1,-3.6 -0.78,-2.04 -0.78,-4.56 0,-2.34 0.78,-5.04 0.72,-2.7 2.46,-5.58 z m 13.44,10.68 q 0.96,-2.52 1.62,-5.46 0.66,-2.94 1.08,-5.94 0.42,-2.94 0.6,-5.76 0.24,-2.76 0.36,-4.98 -2.16,1.32 -4.32,2.7 -2.1,1.38 -4.08,2.94 -1.98,1.56 -3.72,3.3 -1.68,1.8 -2.94,3.96 -1.5,2.46 -2.16,4.68 -0.66,2.28 -0.66,4.32 0,1.8 0.48,3.3 0.48,1.56 1.32,2.64 0.84,1.08 1.92,1.68 1.08,0.6 2.34,0.6 2.04,0 4.26,-1.86 2.22,-1.86 3.9,-6.12 z"
         style="font-style:normal;font-variant:normal;font-weight:normal;font-stretch:normal;font-size:60px;font-family:charlotte;-inkscape-font-specification:charlotte;fill:#000000;stroke-width:1.79705334"
         id="path12217"
         inkscape:connector-curvature="0" />
      <path
         d="m -1569.5995,-264.83299 q 0.78,-0.42 1.38,-1.08 0.66,-0.72 1.14,-1.5 0.48,-0.84 0.72,-1.62 0.3,-0.84 0.3,-1.38 -0.24,0.18 -0.78,0.9 -0.48,0.72 -1.08,1.62 -0.54,0.84 -1.02,1.74 -0.48,0.84 -0.66,1.32 z m -10.8,-13.5 q 0.24,-4.56 0.66,-10.26 0.48,-5.7 1.5,-11.52 1.08,-5.82 2.94,-11.22 1.86,-5.4 4.92,-9.3 1.74,-2.22 3.9,-3.66 2.22,-1.44 4.5,-1.98 2.34,-0.6 4.5,-0.24 2.22,0.36 3.96,1.8 1.74,1.44 2.76,4.02 1.08,2.52 1.08,6.36 0,3.12 -1.08,6.54 -1.02,3.42 -2.82,6.9 -1.8,3.42 -4.14,6.84 -2.28,3.36 -4.8,6.48 -2.52,3.06 -5.1,5.64 -2.58,2.58 -4.8,4.5 -0.18,2.46 -0.3,4.02 -0.06,1.56 -0.18,2.94 -0.06,1.38 -0.12,3 -0.06,1.62 -0.18,4.14 0.72,-1.62 1.68,-3.6 1.02,-2.04 2.34,-3.78 1.32,-1.8 2.94,-3 1.68,-1.2 3.72,-1.2 1.68,0 2.76,1.14 1.14,1.14 1.14,2.7 0,1.2 -0.66,2.34 -0.6,1.14 -1.68,2.22 -1.08,1.02 -2.46,1.92 -1.38,0.9 -2.88,1.56 0.42,1.5 1.5,2.22 1.14,0.72 2.7,0.72 3.42,0 7.14,-3.6 3.78,-3.6 6.66,-10.8 0.24,-0.36 0.72,-0.36 0.48,0 0.9,0.24 0.48,0.18 0.72,0.54 0.3,0.36 0.12,0.66 -1.86,4.56 -4.08,7.8 -2.16,3.18 -4.5,5.22 -2.34,2.04 -4.86,3 -2.46,0.9 -4.92,0.9 -2.52,0 -4.32,-1.38 -1.8,-1.44 -2.04,-4.56 -1.2,2.7 -1.98,5.46 -0.72,2.7 -1.14,5.46 -0.12,0.96 -1.38,1.56 -1.26,0.6 -2.7,0.66 -1.44,0.06 -2.64,-0.54 -1.14,-0.54 -1.14,-1.86 0.06,-3 0.18,-6.3 0.12,-3.3 0.3,-6.72 0.12,-3.42 0.3,-6.84 0.18,-3.48 0.36,-6.78 z m 15.96,-38.64 q -1.98,3.54 -3.3,8.04 -1.32,4.5 -2.22,9.36 -0.84,4.8 -1.38,9.6 -0.54,4.74 -0.9,8.88 2.04,-1.8 4.26,-4.2 2.28,-2.46 4.5,-5.22 2.22,-2.82 4.2,-5.82 2.04,-3.06 3.6,-6.12 1.56,-3.06 2.46,-6 0.9,-3 0.9,-5.7 0,-3.24 -1.26,-5.28 -1.2,-2.04 -3.06,-2.58 -1.8,-0.54 -3.9,0.66 -2.1,1.14 -3.9,4.38 z"
         style="font-style:normal;font-variant:normal;font-weight:normal;font-stretch:normal;font-size:60px;font-family:charlotte;-inkscape-font-specification:charlotte;fill:#000000;stroke-width:1.79705334"
         id="path12219"
         inkscape:connector-curvature="0" />
      <path
         d="m -1548.773,-269.81299 q -0.24,-0.6 -0.3,-1.26 -0.06,-0.66 -0.06,-1.32 0,-1.92 0.84,-3.72 0.84,-1.8 2.22,-3.18 1.38,-1.44 3.12,-2.28 1.8,-0.84 3.72,-0.84 2.94,0 4.92,1.86 1.98,1.86 3,4.56 1.08,2.64 1.2,5.58 0.18,2.88 -0.42,5.04 1.86,-0.06 3.24,-0.66 1.44,-0.66 2.58,-1.8 1.2,-1.2 2.16,-2.82 1.02,-1.68 1.98,-3.84 0.18,-0.48 0.66,-0.54 0.48,-0.12 0.96,0.06 0.48,0.18 0.78,0.6 0.3,0.42 0.06,0.96 -1.14,2.64 -2.4,4.62 -1.26,1.98 -2.88,3.36 -1.56,1.32 -3.54,2.04 -1.92,0.66 -4.44,0.78 -1.62,2.94 -3.72,4.32 -2.04,1.32 -4.2,1.44 -2.1,0.12 -4.08,-0.84 -1.98,-0.96 -3.36,-2.7 -1.38,-1.8 -1.98,-4.2 -0.66,-2.46 -0.06,-5.22 z m 9.42,-10.2 q -1.62,0 -3.24,1.02 -1.56,1.02 -2.58,2.58 1.2,-0.84 2.58,-0.84 0.84,0 1.56,0.36 0.72,0.3 1.2,0.78 0.54,0.42 0.78,0.9 0.3,0.48 0.3,0.84 0,0.18 -0.12,0.42 -1.44,1.56 -2.28,3.36 -0.84,1.74 -0.84,3.9 2.46,0.96 4.56,1.26 2.16,0.3 4.26,0.3 0.48,-1.8 0.42,-4.32 0,-2.58 -0.66,-4.92 -0.66,-2.34 -2.1,-3.96 -1.44,-1.68 -3.84,-1.68 z m 4.98,17.46 q -1.92,-0.06 -3.84,-0.3 -1.92,-0.3 -3.72,-0.96 0.48,1.74 1.38,2.64 0.9,0.9 1.98,1.08 1.08,0.12 2.16,-0.48 1.14,-0.6 2.04,-1.98 z"
         style="font-style:normal;font-variant:normal;font-weight:normal;font-stretch:normal;font-size:60px;font-family:charlotte;-inkscape-font-specification:charlotte;fill:#000000;stroke-width:1.79705334"
         id="path12221"
         inkscape:connector-curvature="0" />
      <path
         d="m -1483.0195,-274.49299 q 0.3,-0.48 0.78,-0.48 0.48,-0.06 0.9,0.18 0.48,0.18 0.72,0.6 0.24,0.36 0.06,0.78 -1.08,2.88 -2.82,5.82 -1.74,2.94 -3.9,5.34 -2.1,2.34 -4.56,3.9 -2.4,1.5 -4.98,1.5 -1.8,0 -3.18,-0.9 -1.32,-0.9 -2.22,-2.34 -0.9,-1.44 -1.44,-3.3 -0.54,-1.86 -0.72,-3.78 -0.6,1.38 -1.5,2.82 -0.9,1.44 -2.1,2.64 -1.14,1.14 -2.58,1.92 -1.44,0.72 -3.12,0.72 -2.1,0 -3.48,-1.26 -1.32,-1.32 -2.16,-3.24 -0.78,-1.98 -1.14,-4.32 -0.3,-2.34 -0.3,-4.44 0,-4.92 0.96,-6.96 0.96,-2.1 3.6,-2.1 1.56,0 2.76,0.84 1.26,0.84 1.26,2.04 0,0.66 -0.12,2.04 -0.06,1.32 -0.12,3 0,1.68 0,3.48 0,1.74 0.18,3.18 0.18,1.44 0.54,2.4 0.42,0.9 1.14,0.9 1.2,0 2.22,-1.44 1.02,-1.5 1.92,-3.78 0.9,-2.28 1.68,-5.1 0.78,-2.88 1.5,-5.7 0.48,-1.56 1.68,-2.22 1.2,-0.66 2.34,-0.66 1.56,0 2.76,0.84 1.2,0.84 1.2,2.04 0,0.36 -0.18,1.8 -0.18,1.44 -0.36,3.48 -0.18,1.98 -0.3,4.26 -0.06,2.22 0.12,4.14 0.18,1.86 0.66,3.12 0.54,1.26 1.56,1.26 1.86,0 3.54,-1.56 1.74,-1.62 3.12,-3.72 1.44,-2.16 2.46,-4.32 1.08,-2.22 1.62,-3.42 z"
         style="font-style:normal;font-variant:normal;font-weight:normal;font-stretch:normal;font-size:60px;font-family:charlotte;-inkscape-font-specification:charlotte;fill:#000000;stroke-width:1.79705334"
         id="path12223"
         inkscape:connector-curvature="0" />
      <path
         d="m -1483.1395,-273.83299 q 0,-1.44 0.96,-2.04 1.02,-0.6 2.4,-0.6 1.56,0 2.64,0.84 1.08,0.84 1.08,2.16 0,1.8 0.24,4.08 0.24,2.22 0.6,4.2 0.42,1.92 1.02,3.24 0.6,1.32 1.32,1.32 0.72,0 1.14,-1.62 0.42,-1.62 0.78,-4.02 0.36,-2.4 0.78,-5.22 0.48,-2.88 1.26,-5.28 0.78,-2.4 2.04,-4.02 1.26,-1.62 3.18,-1.62 1.38,0 2.22,1.2 0.9,1.2 1.38,3 0.48,1.8 0.66,3.96 0.24,2.1 0.3,3.9 0.06,1.8 0.12,3 0.06,1.2 0.18,1.2 0.12,0 0.48,-0.72 0.36,-0.78 0.78,-1.68 0.42,-0.9 0.72,-1.68 0.36,-0.84 0.42,-1.02 0.84,-2.16 2.1,-3.66 1.32,-1.56 3.12,-1.56 1.86,0 2.46,1.56 0.6,1.5 0.6,3.78 0,0.54 -0.12,2.04 -0.12,1.5 -0.12,3.12 0,1.56 0.3,2.82 0.3,1.2 1.14,1.2 1.68,0 3.42,-1.5 1.74,-1.5 3.24,-3.54 1.56,-2.04 2.7,-4.14 1.14,-2.16 1.62,-3.36 0.3,-0.48 0.72,-0.6 0.48,-0.12 0.9,0.06 0.42,0.18 0.66,0.66 0.24,0.42 0.18,0.96 -0.84,2.4 -2.4,5.1 -1.56,2.7 -3.72,4.98 -2.16,2.28 -4.74,3.78 -2.58,1.5 -5.34,1.5 -1.74,-0.06 -2.88,-0.84 -1.14,-0.84 -1.86,-2.1 -0.66,-1.26 -0.96,-2.76 -0.3,-1.56 -0.42,-3.06 -0.48,0.96 -1.14,1.86 -0.6,0.9 -1.32,1.62 -0.72,0.72 -1.62,1.2 -0.84,0.42 -1.86,0.42 -1.5,0 -2.46,-0.9 -0.9,-0.9 -1.44,-2.28 -0.48,-1.38 -0.66,-3 -0.18,-1.62 -0.18,-3.12 0,-2.52 0,-3.48 0,-0.96 -0.06,-1.44 -0.48,2.82 -1.08,6.12 -0.54,3.3 -1.44,6.18 -0.9,2.88 -2.28,4.8 -1.38,1.92 -3.48,1.92 -1.92,0 -3.3,-0.9 -1.32,-0.96 -2.28,-2.4 -0.9,-1.5 -1.44,-3.36 -0.54,-1.86 -0.84,-3.72 -0.24,-1.86 -0.3,-3.6 -0.12,-1.74 -0.12,-2.94 z"
         style="font-style:normal;font-variant:normal;font-weight:normal;font-stretch:normal;font-size:60px;font-family:charlotte;-inkscape-font-specification:charlotte;fill:#000000;stroke-width:1.79705334"
         id="path12225"
         inkscape:connector-curvature="0" />
    </g>
    <g
       id="g1126"
       transform="matrix(0.00875731,-0.0230393,-0.0230393,-0.00875731,-207.93153,575.85274)"
       style="fill:#000000;stroke-width:2.61297989"
       inkscape:transform-center-x="8.3066386"
       inkscape:transform-center-y="-10.675004">
      <path
         d="m 15967.4,9856.32 c 22.7,2.33 45.3,2.41 66.7,7.39 28.9,6.72 58,14.7 81.8,34.22 -28.5,14.41 -57.4,4.27 -86.1,0.53 -9.8,-1.28 -19.4,-4.62 -28.9,-7.51 -2.7,-0.8 -10.2,-1.71 -6.5,-5.06 18.5,-16.75 -2.5,-13.54 -8.3,-17.08 -6,-3.61 -15.8,-0.49 -18.7,-12.49 z m -163.9,-226.8 c 59.7,-6.44 113.1,-10.74 165.9,5.68 6.2,1.93 17.7,1.86 16.7,10.5 -0.9,7.95 -11.8,7.38 -19,9.27 -54.2,14.41 -108.7,18.39 -163.8,4.85 0.5,-0.96 0.8,-2.2 1.6,-2.84 8.2,-6.81 25.7,5.56 27.1,-8.57 1.2,-10.54 -17.6,-5.37 -28.5,-18.89 z m -340.2,32.59 c 3,-75.12 30.6,-166.59 62.4,-205.25 -2.5,18.8 -4.7,33.57 -6.2,48.41 -0.2,3.21 1.5,8.95 3.6,9.66 6.1,2.06 7.9,-3.16 9.5,-8.11 6.1,-19.6 6.4,-41.14 22.2,-63.69 -9.5,84.29 -31.7,156.73 -91.5,218.98 z m 429.3,249.78 c 3.3,12.45 5.8,19.58 7.1,26.91 10.5,55.97 3.9,110.3 -16.7,163 -1.3,3.4 -3.4,7.8 -6.3,8.9 -3.5,1.4 -6.8,-2.3 -7.8,-6.1 -16.5,-64.8 -28.1,-129.7 -5.4,-195.67 7.7,2.35 7.9,9.12 9.3,15.08 2.9,12.26 5.5,24.56 8.4,36.8 1.4,5.86 1.5,15.24 9.3,13.87 10,-1.76 6.8,-12.19 5.4,-18.47 -2.8,-12.26 -6.6,-24.2 -3.3,-44.32 z m -226.2,-539.86 c 56,-12.06 107.9,2.34 158.9,21.48 4.5,1.67 11.4,5.19 11.6,8.21 0.5,7.66 -7.3,8.47 -13.2,10.38 -61.2,19.65 -121.5,16.53 -181.1,-6.7 -6.7,-2.63 -18.7,-4.63 -17.1,-11.45 2.6,-11.14 14.5,-3.98 22.2,-4.41 11.3,-0.64 22.6,0.89 33.9,0.82 4.5,-0.02 11.1,1.46 12.1,-5.28 0.9,-6.34 -5.5,-7.51 -9.8,-9 -5.7,-1.93 -11.7,-2.75 -17.5,-4.05 z m -436.7,-1323.05 c 71.4,27.77 123.5,75.86 159,142.02 1.5,2.73 4.8,6.92 -0.1,9.16 -3.1,1.43 -7.5,1.56 -10.8,0.64 -54.2,-14.84 -98.7,-43.95 -130.8,-90.58 -3.2,-4.59 -13,-9.5 -3.2,-19.51 11.7,11.99 22.9,23.78 34.5,35.31 3.1,3.17 6.8,9.17 11.8,3.83 4.2,-4.35 0.3,-9.69 -2.6,-13.32 -9.4,-11.87 -19.2,-23.37 -29.1,-34.84 -9.4,-11.01 -19.1,-21.81 -28.7,-32.71 z m 403.8,1844.58 c -2.4,-59.51 10.1,-115.88 32,-170.05 6.4,-16.17 17.7,-30.45 26.7,-45.59 2.1,-3.55 5.8,-6.39 9.1,-4.38 2.3,1.33 3.4,6.21 3.3,9.45 -0.4,17.67 -2.6,35.36 -2,52.97 2,63.27 -24.6,113.91 -69.1,157.6 z m -613.3,-1277.85 c 22.5,-100.51 78.6,-189.56 129.6,-209.37 -5.1,7.61 -9.4,13.67 -13.2,19.96 -6,9.66 -12,19.31 -17.4,29.31 -3.5,6.44 -9.9,15.81 -2.9,20.37 8.6,5.57 10.9,-6.22 14.9,-11.54 5.4,-7.05 10.1,-14.64 15.5,-21.57 4.7,-5.94 8.7,-13.27 23.6,-17.27 -38.8,74.38 -84.5,134.81 -150.1,190.11 z M 16094.8,10064 c 26.5,10.1 49.1,26 71.4,42.4 38.2,28.2 69.1,62.9 91.3,105 3,5.4 8.1,12.2 4.4,17.1 -6.1,8 -13.8,1.1 -20.2,-1.8 -62.5,-28 -113.8,-70.1 -154.3,-125.1 -4.6,-6.2 -10.8,-12 -10.5,-23.5 24.6,19.3 46.2,36.7 68.5,53.1 6.3,4.6 14.6,15.6 22.2,6.3 3.9,-4.9 -7.3,-11.3 -12.9,-15.9 -21.4,-17.5 -43,-34.9 -59.9,-57.6 z m -736.7,-932.59 c -7.3,17.28 -12.1,28.46 -16.7,39.77 -3.7,9.34 -8.1,18.62 -7.4,29.03 0.1,2.27 1.3,5.56 3,6.33 1.4,0.68 5.3,-0.9 6.2,-2.53 4.9,-8.75 9.2,-17.84 13.8,-26.79 18.4,-36.36 25.6,-46.09 46.8,-61.33 -15.4,64.06 -39.3,121.68 -76,173.62 -12.4,17.45 -26.3,33.73 -39.8,50.33 -2.3,2.8 -6.3,4.46 -9.6,1.98 -1.4,-1.04 -1.5,-4.69 -1.2,-6.99 8.5,-57.62 22.3,-113.67 49,-165.84 6.6,-12.73 13.5,-25.56 31.9,-37.58 z m 143.3,-81.01 c 50.6,-17.21 98.9,-5.88 147.1,3.06 16.5,3.08 35.6,1.54 46.4,19.16 -12.1,14.31 -29.4,19.31 -46.1,24.44 -58.3,17.91 -114.7,6.19 -170.5,-12.36 -4.7,-1.59 -11.7,-3.04 -11,-8.25 1.4,-8.95 9.8,-3.85 15.1,-4.57 22.5,-3.07 44.3,9.33 67.8,3.72 -9.5,-20.82 -33.5,-8.74 -48.8,-25.2 z m -253.5,-322.09 c -9.5,73.2 -37.6,138.59 -78.5,198.72 -9.8,14.58 -21.5,27.98 -32.8,41.59 -2.1,2.58 -6.3,5.43 -9.1,5.05 -7.4,-1 -4.6,-7.77 -4.3,-11.9 7,-73.05 32.8,-139.68 70.4,-202.06 4,-6.56 7.5,-14.67 16.5,-17.33 3.2,8.6 -0.8,14.04 -2.4,19.94 -5.4,18.18 -10.7,36.36 -15.6,54.63 -1.3,4.83 -2,9.99 -2,14.99 0,5.43 -3.5,13.57 5.6,14.53 5.8,0.61 7.5,-5.81 8.9,-10.55 10.9,-37.36 23.2,-74.21 43.3,-107.61 z m 21.9,-358.79 c 13.3,0 26.6,0.1 40,-0.05 4.9,-0.06 11,-0.25 12.1,-6.07 1.4,-7.4 -5.7,-7.18 -10.1,-7.52 -19.2,-1.48 -38.5,-2.37 -58.7,-3.53 1.9,-3 2.3,-4.62 3.2,-4.99 61.8,-24.59 190.9,8.46 232.1,59.78 7.8,9.67 -0.1,13.13 -8.4,14.14 -29.2,3.58 -58.1,0.85 -86.7,-5.32 -42.7,-9.23 -85,-19.92 -123.5,-46.44 z m -31.3,-617.16 c 7.1,-6.26 11.5,-2.69 15.8,-0.44 14.6,7.72 27.3,18.12 39.5,29.22 4.2,3.85 9.8,12.34 14.5,7.86 7.6,-7.31 -2.4,-13.17 -6.6,-18.4 -11.1,-13.93 -25.1,-24.67 -40,-34.52 -6.7,-4.43 -17.6,-5.1 -17.9,-16.92 13,-4.46 25.1,-1.15 36.6,4.38 61,29.34 107.8,74.02 142.2,132.03 2.7,4.51 4.5,9.79 1.3,14.08 -3.4,4.61 -8.9,2.62 -13.9,1.67 -75,-14.21 -127.7,-59.82 -171.5,-118.96 z m -118.5,292.81 c -13.5,22.74 -27.8,45.01 -40.1,68.34 -10,18.89 -17.7,38.95 -25.9,58.72 -1.3,2.96 -0.9,8.98 1,10.42 6.3,4.62 8.3,-2.53 9.9,-6 20.1,-43.81 46,-84.07 74.4,-122.81 2.4,-3.24 5.1,-9.71 10.7,-5.19 1.8,1.44 1.4,7.4 0.1,10.52 -23.1,56.52 -52.9,108.85 -96.3,152.62 -22,22.18 -44.5,43.6 -78.8,62.7 27.1,-95.9 54.4,-182.48 145,-229.32 z m 27,-255.14 c -29.3,44.98 -69.2,74.76 -113.5,99.48 -15.5,8.64 -31.6,15.9 -49.3,19 -3.7,0.63 -8.4,2.34 -10.3,-1.67 -1.2,-2.7 -0.3,-7.28 1.2,-10.21 26.9,-52.17 59,-100.52 104,-138.94 27.5,-23.42 59.6,-35.38 104.1,-36.87 -21.1,22.32 -37.7,39.23 -53.6,56.82 -8,9 -26.7,21.07 -20.1,27.89 10.3,10.78 18.7,-9.35 29,-14.3 1.7,-0.84 3.9,-0.61 8.5,-1.2 z m 145.7,873.16 c 34.6,-26.81 74.8,-27.01 115,-24.27 74.5,5.06 131.9,47.76 190,88.47 8,5.59 3.1,11.22 -3.6,13.56 -8.3,2.89 -17,4.94 -25.7,6.43 -92.8,15.8 -178.3,-5.97 -259,-51.23 -2.8,-1.6 -6.2,-5.46 -6.2,-8.36 -0.2,-7.16 7,-4.79 11,-6.78 15.8,-7.93 35.8,0.87 55.1,-12.92 -28.3,-6.37 -52.3,-3.89 -76.6,-4.9 z m -79.2,-318.3 c -16.4,-88.6 -16.2,-177.08 -21.4,-267.47 16,3.01 16.8,16.38 21.8,24.85 36.6,61.83 88.7,103.2 158.5,121.24 14.3,3.7 31.9,11.54 42.8,-2.36 11.2,-14.34 -2.4,-28.59 -9.3,-41.54 -31.5,-58.15 -75,-104.69 -132.6,-137.75 -18.7,-10.7 -36.7,-22.68 -55.7,-32.66 -15,-7.89 -21.8,-17.68 -21.4,-35.72 1.4,-64.72 8.9,-128.75 18.1,-192.69 0.5,-3.53 0.2,-7.87 4.6,-9.06 4.1,-1.1 7,1.26 9.5,4.41 18.1,22.98 39.1,42.98 61,62.34 36.3,32.15 79.1,49.32 126.3,56.91 28.6,4.61 40.6,-10.35 30.6,-37.34 -2.2,-5.86 -5.6,-11.33 -9,-16.69 -29.8,-48.18 -69,-87.22 -116.3,-118.18 -22.5,-14.77 -46.7,-26.11 -74.7,-23.08 -17.5,1.9 -19,-7.07 -16.6,-20.4 8.7,-47.28 17.7,-94.51 25.8,-141.88 1.6,-9.67 11.1,-24.93 -2.5,-28.31 -10.5,-2.6 -11,14.9 -13,23.96 -9.7,44.47 -19.2,89.05 -26.9,133.91 -3.1,17.84 -9.3,26.26 -28.6,27.28 -78.3,4.15 -134.3,45.79 -178.4,107.81 -24.3,34.22 -44.5,70.72 -63.6,107.83 -10.2,19.73 -3.3,28.74 19.1,25.74 71,-9.48 127.9,-45.69 176.2,-96.56 18.1,-19.01 34,-40.06 55,-65.09 -4.9,50.79 -9.2,95.41 -13.4,140.04 -1.9,20.12 0.9,42.36 -6.9,59.81 -8.1,17.96 -32.8,21.08 -49.6,31.82 -71.1,45.37 -122.1,105.49 -145.7,187.55 -7.7,26.73 -17,53.02 -25.2,79.6 -2.3,7.17 -4.4,14.69 -4.6,22.11 -0.3,10.39 8.4,15.94 18.2,11.66 8.1,-3.5 15.5,-8.61 22.9,-13.41 69.6,-44.97 124.1,-103.59 161.5,-177.81 5.4,-10.74 8.1,-23.61 18.4,-31.26 7.2,3.94 5,9.48 5.1,13.92 0.9,74.77 6.3,149.2 15,223.46 3.7,31.57 3.2,32.06 -25.7,44.3 -36.1,15.28 -64.2,40.04 -87.4,70.93 -36.4,48.34 -56.5,104.34 -75.4,160.85 -0.4,1.19 -0.7,2.47 -0.8,3.72 -1.4,13.5 -8.3,29.79 5.7,38.6 15.4,9.74 25.3,-6.48 35.1,-14.87 62.4,-53.19 112.9,-115.97 149,-189.85 2.2,-4.38 3,-10.66 8.8,-10.81 7.7,-0.2 5.7,7.19 6.4,11.47 11.3,70 24.8,139.54 43.3,208.03 3.6,13.19 5,22.94 -10.5,31.23 -16.7,8.91 -28.3,25.21 -39.7,40.37 -61.2,81.47 -91.3,174.01 -96.8,275.16 -0.4,7.62 -0.8,15.7 7,20.27 10.2,5.95 16.8,-1.69 22.7,-7.72 33.2,-33.55 61.2,-71.04 83.3,-112.67 24.4,-45.97 43.8,-93.94 54.3,-145.49 8.9,-0.64 9.7,6.65 11.1,11.49 27.7,99.01 64.8,194.43 108.4,287.44 5.3,11.35 12.6,22.38 -3.9,32.27 -65.8,39.44 -93.5,103.54 -112.2,173.87 -9.4,35.66 -12.8,72.21 -19.7,108.21 -0.7,3.69 -0.9,7.58 -0.7,11.35 0.8,15.45 10,20.75 22.3,12.24 7.2,-4.99 13.6,-11.36 19.8,-17.59 48.3,-48 85,-103.59 109.8,-167.01 5,-12.96 9.3,-26.24 14.3,-39.25 2.5,-6.65 1.5,-17.91 10.8,-17.42 7.4,0.37 9.4,10.72 12.7,17.32 23,46.55 45.7,93.19 68.7,139.72 10.1,20.42 20,40.96 31.1,60.87 6.3,11.37 6.5,19.7 -2.6,30.37 -46.5,54.45 -70.6,119.08 -84.2,188.51 -6.5,33.52 -14.4,66.76 -21.6,100.16 -1.6,7.35 -4.1,15.86 3.2,21.03 9.6,6.9 16.4,-1.54 23,-6.92 55.5,-44.89 86.4,-104.99 104.9,-172.28 4.6,-16.97 6.4,-34.77 9.1,-52.24 1.6,-9.79 0.7,-20.19 7.4,-28.52 7.4,2 10,7.99 13.3,13.27 33.3,52.35 66.5,104.8 100.1,156.94 7.2,11.24 12.7,19.85 0.6,32.59 -59.3,62.3 -74.6,141.78 -84.6,223.04 -1.8,15.08 -3,30.25 -4.3,45.39 -0.7,7.89 0.1,15.87 8.3,19.27 6.2,2.53 12.4,-0.55 17.7,-4.32 33.8,-24.14 59.1,-55.46 74.9,-93.75 16.5,-39.94 27.2,-81.58 31.2,-124.76 0.6,-6.14 1.1,-12.28 1.6,-18.37 9.3,-0.42 11.7,6.17 15,11.16 27.9,42.32 56.7,84.07 89.2,122.92 12.2,14.57 12.6,27.74 7.6,44.74 -6.8,22.98 -10.7,46.82 -15.9,70.26 -8.7,38.99 -8,77.8 1.1,116.7 5.5,23.4 10.3,47 15.7,70.4 2.5,11 3.8,24.8 17.1,26.9 15.9,2.6 20.4,-12.5 26.2,-23.1 21.1,-38.5 29.9,-80.5 32.6,-123.9 1.6,-25.21 1.4,-50.47 -6.2,-76.54 12.4,-1.65 16.6,7.1 21.9,12.59 20.4,20.81 39.9,42.51 60.6,62.95 13.7,13.6 23.7,28.8 31.9,46.4 42.5,91.4 112.1,155.1 203.8,194.9 15,6.6 34.2,21 48.7,3.7 12.4,-14.8 -2.3,-31.2 -9.1,-45.5 -22.2,-46.7 -56,-84 -97.4,-114.5 -35.8,-26.4 -73.1,-50.4 -114.1,-67.7 -27.6,-11.7 -50.1,-28.51 -69.6,-50.93 -23,-26.47 -47.4,-51.83 -67.6,-82.43 12.5,4.54 25.2,8.7 37.5,13.68 54.3,21.89 110.6,25.5 168,19.32 7.4,-0.8 15.2,-2.16 22,-5.06 8.9,-3.82 8.9,-11.6 4.1,-18.8 -5.9,-8.74 -15.9,-12.2 -24.6,-17.35 -65.3,-39.02 -137.1,-52.6 -211.6,-46.07 -33.7,2.96 -54.3,-6.87 -72.8,-33.14 -29.1,-41.05 -61,-80.1 -87.8,-127.89 23.5,4.86 42.7,10.03 62.4,12.65 58.7,7.89 116.1,-0.54 172.5,-16.63 11.5,-3.26 27,-5.2 27.1,-21.94 0,-13.49 -12.3,-18.25 -22.4,-23.1 -25.4,-12.15 -52.1,-20.07 -80.1,-21.95 -58.5,-3.92 -116.6,-0.91 -172.4,19.07 -12.7,4.54 -21,5.32 -29,-6.52 -44.5,-65.71 -87.4,-132.41 -127.5,-201.55 11.1,-4.75 16.4,2.08 22.7,5.07 73.5,34.9 148.8,36.41 225.4,11.5 3.6,-1.17 7.4,-2.04 10.8,-3.66 23.9,-11.51 25.8,-27.88 4.1,-42.01 -10.5,-6.82 -22.5,-11.6 -34.2,-16.32 -74.3,-29.96 -150.4,-30.75 -227.6,-13.93 -31.1,6.77 -31.6,7.24 -45.7,-20.98 -36.3,-72.43 -72,-145.13 -107.8,-217.83 -2.6,-5.4 -6.9,-14.28 -4.8,-16.93 6.1,-7.49 13.6,-0.37 20.3,2.26 47.6,18.97 96.6,29.53 148.2,26.22 33.5,-2.14 64.8,-10.85 93.8,-27.66 12,-6.96 25.7,-13.94 23.7,-31.03 -1.9,-16.57 -16.1,-22.6 -29.3,-26.32 -79.1,-22.38 -158.1,-35.02 -237.5,0.43 -40.2,17.99 -40.5,16.65 -59.2,-23.89 -39.5,-85.16 -72.1,-172.83 -98.5,-262.84 -2.9,-9.71 -6.3,-19.32 -8.3,-29.21 -1.3,-6.88 0.3,-13.39 9.9,-8.93 16.1,7.48 31.8,15.53 47.9,23.07 77.1,36.3 157.2,45.9 240.5,27.25 13.6,-3.05 27.1,-6.96 38.8,-14.67 12.3,-8.01 14.2,-19.12 2.4,-27.95 -85,-63.45 -170.9,-124.91 -286.7,-104.44 -16.4,2.91 -31.8,7.42 -46.8,14.58 -28,13.42 -28.8,13.39 -36.1,-17.8 -9.1,-39.43 -17.5,-79.07 -25.1,-118.83 -6.2,-32.29 -11.4,-64.79 -15.9,-97.35 -2.4,-16.91 0.4,-18.95 15.1,-12.87 33.9,14 68.3,26.63 103.3,37.83 31.6,10.12 63.9,15.42 96.4,19.92 24.2,3.35 48.2,0 71.5,-6.6 17.4,-4.95 21.9,-18.87 9.9,-31.78 -56.5,-60.81 -174.8,-110.13 -259.4,-81.2 -14.1,4.82 -27.3,12.28 -43.5,19.73"
         style="fill:#000000;fill-opacity:1;fill-rule:nonzero;stroke:none;stroke-width:2.61297989"
         id="path1128"
         inkscape:connector-curvature="0" />
    </g>
  </g>
</svg>
